<?xml version="1.0" encoding="UTF-8" standalone="no"?>
<!DOCTYPE svg PUBLIC "-//W3C//DTD SVG 1.1//EN"
 "http://www.w3.org/Graphics/SVG/1.1/DTD/svg11.dtd">
<!-- Generated by graphviz version 2.38.0 (20140413.2041)
 -->
<!-- Title: snakemake_dag Pages: 1 -->
<svg width="1214pt" height="1484pt"
 viewBox="0.00 0.00 1213.50 1484.00" xmlns="http://www.w3.org/2000/svg" xmlns:xlink="http://www.w3.org/1999/xlink">
<g id="graph0" class="graph" transform="scale(1 1) rotate(0) translate(4 1480)">
<title>snakemake_dag</title>
<polygon fill="white" stroke="none" points="-4,4 -4,-1480 1209.5,-1480 1209.5,4 -4,4"/>
<!-- 0 -->
<g id="node1" class="node"><title>0</title>
<path fill="none" stroke="#d85656" stroke-width="2" d="M752,-684C752,-684 661,-684 661,-684 655,-684 649,-678 649,-672 649,-672 649,-660 649,-660 649,-654 655,-648 661,-648 661,-648 752,-648 752,-648 758,-648 764,-654 764,-660 764,-660 764,-672 764,-672 764,-678 758,-684 752,-684"/>
<text text-anchor="middle" x="706.5" y="-663.5" font-family="sans" font-size="10.00">iget_readNames_list</text>
</g>
<!-- 15 -->
<g id="node16" class="node"><title>15</title>
<path fill="none" stroke="#d8c356" stroke-width="2" d="M722.5,-612C722.5,-612 692.5,-612 692.5,-612 686.5,-612 680.5,-606 680.5,-600 680.5,-600 680.5,-588 680.5,-588 680.5,-582 686.5,-576 692.5,-576 692.5,-576 722.5,-576 722.5,-576 728.5,-576 734.5,-582 734.5,-588 734.5,-588 734.5,-600 734.5,-600 734.5,-606 728.5,-612 722.5,-612"/>
<text text-anchor="middle" x="707.5" y="-591.5" font-family="sans" font-size="10.00">seqkit</text>
</g>
<!-- 0&#45;&gt;15 -->
<g id="edge23" class="edge"><title>0&#45;&gt;15</title>
<path fill="none" stroke="grey" stroke-width="2" d="M706.747,-647.697C706.857,-639.983 706.99,-630.712 707.113,-622.112"/>
<polygon fill="grey" stroke="grey" stroke-width="2" points="710.612,-622.153 707.256,-612.104 703.613,-622.053 710.612,-622.153"/>
</g>
<!-- 1 -->
<g id="node2" class="node"><title>1</title>
<path fill="none" stroke="#56d87b" stroke-width="2" d="M1073,-180C1073,-180 978,-180 978,-180 972,-180 966,-174 966,-168 966,-168 966,-156 966,-156 966,-150 972,-144 978,-144 978,-144 1073,-144 1073,-144 1079,-144 1085,-150 1085,-156 1085,-156 1085,-168 1085,-168 1085,-174 1079,-180 1073,-180"/>
<text text-anchor="middle" x="1025.5" y="-159.5" font-family="sans" font-size="10.00">samtools_flagstat_T1</text>
</g>
<!-- 2 -->
<g id="node3" class="node"><title>2</title>
<path fill="none" stroke="#56d882" stroke-width="2" d="M656,-108C656,-108 611,-108 611,-108 605,-108 599,-102 599,-96 599,-96 599,-84 599,-84 599,-78 605,-72 611,-72 611,-72 656,-72 656,-72 662,-72 668,-78 668,-84 668,-84 668,-96 668,-96 668,-102 662,-108 656,-108"/>
<text text-anchor="middle" x="633.5" y="-87.5" font-family="sans" font-size="10.00">reportHtml</text>
</g>
<!-- 1&#45;&gt;2 -->
<g id="edge4" class="edge"><title>1&#45;&gt;2</title>
<path fill="none" stroke="grey" stroke-width="2" d="M965.964,-150.369C886.859,-136.243 748.879,-111.603 678.128,-98.9693"/>
<polygon fill="grey" stroke="grey" stroke-width="2" points="678.652,-95.5075 668.192,-97.195 677.421,-102.398 678.652,-95.5075"/>
</g>
<!-- 22 -->
<g id="node23" class="node"><title>22</title>
<path fill="none" stroke="#d86656" stroke-width="2" d="M520.5,-36C520.5,-36 490.5,-36 490.5,-36 484.5,-36 478.5,-30 478.5,-24 478.5,-24 478.5,-12 478.5,-12 478.5,-6 484.5,-0 490.5,-0 490.5,-0 520.5,-0 520.5,-0 526.5,-0 532.5,-6 532.5,-12 532.5,-12 532.5,-24 532.5,-24 532.5,-30 526.5,-36 520.5,-36"/>
<text text-anchor="middle" x="505.5" y="-15.5" font-family="sans" font-size="10.00">all</text>
</g>
<!-- 1&#45;&gt;22 -->
<g id="edge32" class="edge"><title>1&#45;&gt;22</title>
<path fill="none" stroke="grey" stroke-width="2" d="M1016.64,-143.871C1004.83,-123.005 981.869,-88.5012 951.5,-72 881.157,-33.7793 636.72,-22.774 542.725,-19.9149"/>
<polygon fill="grey" stroke="grey" stroke-width="2" points="542.644,-16.4112 532.546,-19.6196 542.441,-23.4082 542.644,-16.4112"/>
</g>
<!-- 2&#45;&gt;22 -->
<g id="edge33" class="edge"><title>2&#45;&gt;22</title>
<path fill="none" stroke="grey" stroke-width="2" d="M602.188,-71.8761C583.87,-61.8584 560.668,-49.17 541.585,-38.7338"/>
<polygon fill="grey" stroke="grey" stroke-width="2" points="543.04,-35.5405 532.587,-33.8131 539.681,-41.6821 543.04,-35.5405"/>
</g>
<!-- 3 -->
<g id="node4" class="node"><title>3</title>
<path fill="none" stroke="#56c1d8" stroke-width="2" d="M1055,-1044C1055,-1044 996,-1044 996,-1044 990,-1044 984,-1038 984,-1032 984,-1032 984,-1020 984,-1020 984,-1014 990,-1008 996,-1008 996,-1008 1055,-1008 1055,-1008 1061,-1008 1067,-1014 1067,-1020 1067,-1020 1067,-1032 1067,-1032 1067,-1038 1061,-1044 1055,-1044"/>
<text text-anchor="middle" x="1025.5" y="-1023.5" font-family="sans" font-size="10.00">bwa_mem_T1</text>
</g>
<!-- 26 -->
<g id="node27" class="node"><title>26</title>
<path fill="none" stroke="#8fd856" stroke-width="2" d="M1073.5,-972C1073.5,-972 977.5,-972 977.5,-972 971.5,-972 965.5,-966 965.5,-960 965.5,-960 965.5,-948 965.5,-948 965.5,-942 971.5,-936 977.5,-936 977.5,-936 1073.5,-936 1073.5,-936 1079.5,-936 1085.5,-942 1085.5,-948 1085.5,-948 1085.5,-960 1085.5,-960 1085.5,-966 1079.5,-972 1073.5,-972"/>
<text text-anchor="middle" x="1025.5" y="-951.5" font-family="sans" font-size="10.00">samtools_process_T1</text>
</g>
<!-- 3&#45;&gt;26 -->
<g id="edge46" class="edge"><title>3&#45;&gt;26</title>
<path fill="none" stroke="grey" stroke-width="2" d="M1025.5,-1007.7C1025.5,-999.983 1025.5,-990.712 1025.5,-982.112"/>
<polygon fill="grey" stroke="grey" stroke-width="2" points="1029,-982.104 1025.5,-972.104 1022,-982.104 1029,-982.104"/>
</g>
<!-- 4 -->
<g id="node5" class="node"><title>4</title>
<path fill="none" stroke="#56d8a2" stroke-width="2" d="M593.5,-252C593.5,-252 493.5,-252 493.5,-252 487.5,-252 481.5,-246 481.5,-240 481.5,-240 481.5,-228 481.5,-228 481.5,-222 487.5,-216 493.5,-216 493.5,-216 593.5,-216 593.5,-216 599.5,-216 605.5,-222 605.5,-228 605.5,-228 605.5,-240 605.5,-240 605.5,-246 599.5,-252 593.5,-252"/>
<text text-anchor="middle" x="543.5" y="-231.5" font-family="sans" font-size="10.00">getNames_metaphlan</text>
</g>
<!-- 4&#45;&gt;2 -->
<g id="edge6" class="edge"><title>4&#45;&gt;2</title>
<path fill="none" stroke="grey" stroke-width="2" d="M543.647,-215.922C544.561,-196.948 548.348,-166.082 562.5,-144 570.04,-132.235 581.169,-122.146 592.391,-114.025"/>
<polygon fill="grey" stroke="grey" stroke-width="2" points="594.641,-116.727 600.933,-108.203 590.698,-110.943 594.641,-116.727"/>
</g>
<!-- 5 -->
<g id="node6" class="node"><title>5</title>
<path fill="none" stroke="#568ad8" stroke-width="2" d="M593,-324C593,-324 494,-324 494,-324 488,-324 482,-318 482,-312 482,-312 482,-300 482,-300 482,-294 488,-288 494,-288 494,-288 593,-288 593,-288 599,-288 605,-294 605,-300 605,-300 605,-312 605,-312 605,-318 599,-324 593,-324"/>
<text text-anchor="middle" x="543.5" y="-303.5" font-family="sans" font-size="10.00">count_info_metaphlan</text>
</g>
<!-- 5&#45;&gt;4 -->
<g id="edge13" class="edge"><title>5&#45;&gt;4</title>
<path fill="none" stroke="grey" stroke-width="2" d="M543.5,-287.697C543.5,-279.983 543.5,-270.712 543.5,-262.112"/>
<polygon fill="grey" stroke="grey" stroke-width="2" points="547,-262.104 543.5,-252.104 540,-262.104 547,-262.104"/>
</g>
<!-- 6 -->
<g id="node7" class="node"><title>6</title>
<path fill="none" stroke="#56d8a9" stroke-width="2" d="M826,-756C826,-756 795,-756 795,-756 789,-756 783,-750 783,-744 783,-744 783,-732 783,-732 783,-726 789,-720 795,-720 795,-720 826,-720 826,-720 832,-720 838,-726 838,-732 838,-732 838,-744 838,-744 838,-750 832,-756 826,-756"/>
<text text-anchor="middle" x="810.5" y="-735.5" font-family="sans" font-size="10.00">kraken2</text>
</g>
<!-- 6&#45;&gt;0 -->
<g id="edge2" class="edge"><title>6&#45;&gt;0</title>
<path fill="none" stroke="grey" stroke-width="2" d="M785.059,-719.876C771.713,-710.893 755.176,-699.763 740.722,-690.034"/>
<polygon fill="grey" stroke="grey" stroke-width="2" points="742.289,-686.87 732.039,-684.19 738.381,-692.677 742.289,-686.87"/>
</g>
<!-- 6&#45;&gt;15 -->
<g id="edge24" class="edge"><title>6&#45;&gt;15</title>
<path fill="none" stroke="grey" stroke-width="2" d="M805.931,-719.997C800.269,-701.09 789.27,-670.284 772.5,-648 764.128,-636.875 752.941,-626.666 742.21,-618.241"/>
<polygon fill="grey" stroke="grey" stroke-width="2" points="744.239,-615.387 734.147,-612.161 740.024,-620.976 744.239,-615.387"/>
</g>
<!-- 23 -->
<g id="node24" class="node"><title>23</title>
<path fill="none" stroke="#56a9d8" stroke-width="2" d="M231,-324C231,-324 146,-324 146,-324 140,-324 134,-318 134,-312 134,-312 134,-300 134,-300 134,-294 140,-288 146,-288 146,-288 231,-288 231,-288 237,-288 243,-294 243,-300 243,-300 243,-312 243,-312 243,-318 237,-324 231,-324"/>
<text text-anchor="middle" x="188.5" y="-303.5" font-family="sans" font-size="10.00">get_fasta_final_bac</text>
</g>
<!-- 6&#45;&gt;23 -->
<g id="edge41" class="edge"><title>6&#45;&gt;23</title>
<path fill="none" stroke="grey" stroke-width="2" d="M782.764,-736.469C664.762,-733.478 210.5,-714.22 210.5,-595 210.5,-595 210.5,-595 210.5,-449 210.5,-408.74 201.757,-362.808 195.294,-334.355"/>
<polygon fill="grey" stroke="grey" stroke-width="2" points="198.64,-333.293 192.952,-324.354 191.825,-334.889 198.64,-333.293"/>
</g>
<!-- 25 -->
<g id="node26" class="node"><title>25</title>
<path fill="none" stroke="#569ad8" stroke-width="2" d="M897.5,-324C897.5,-324 835.5,-324 835.5,-324 829.5,-324 823.5,-318 823.5,-312 823.5,-312 823.5,-300 823.5,-300 823.5,-294 829.5,-288 835.5,-288 835.5,-288 897.5,-288 897.5,-288 903.5,-288 909.5,-294 909.5,-300 909.5,-300 909.5,-312 909.5,-312 909.5,-318 903.5,-324 897.5,-324"/>
<text text-anchor="middle" x="866.5" y="-303.5" font-family="sans" font-size="10.00">get_fasta_final</text>
</g>
<!-- 6&#45;&gt;25 -->
<g id="edge45" class="edge"><title>6&#45;&gt;25</title>
<path fill="none" stroke="grey" stroke-width="2" d="M814.547,-719.622C820.391,-692.967 830.5,-640.311 830.5,-595 830.5,-595 830.5,-595 830.5,-449 830.5,-407.775 844.933,-361.826 855.522,-333.662"/>
<polygon fill="grey" stroke="grey" stroke-width="2" points="858.865,-334.722 859.215,-324.133 852.338,-332.192 858.865,-334.722"/>
</g>
<!-- 38 -->
<g id="node39" class="node"><title>38</title>
<path fill="none" stroke="#d8b456" stroke-width="2" d="M900.5,-684C900.5,-684 870.5,-684 870.5,-684 864.5,-684 858.5,-678 858.5,-672 858.5,-672 858.5,-660 858.5,-660 858.5,-654 864.5,-648 870.5,-648 870.5,-648 900.5,-648 900.5,-648 906.5,-648 912.5,-654 912.5,-660 912.5,-660 912.5,-672 912.5,-672 912.5,-678 906.5,-684 900.5,-684"/>
<text text-anchor="middle" x="885.5" y="-663.5" font-family="sans" font-size="10.00">infofile</text>
</g>
<!-- 6&#45;&gt;38 -->
<g id="edge60" class="edge"><title>6&#45;&gt;38</title>
<path fill="none" stroke="grey" stroke-width="2" d="M829.039,-719.697C838.303,-711.05 849.662,-700.449 859.757,-691.027"/>
<polygon fill="grey" stroke="grey" stroke-width="2" points="862.251,-693.486 867.174,-684.104 857.475,-688.369 862.251,-693.486"/>
</g>
<!-- 7 -->
<g id="node8" class="node"><title>7</title>
<path fill="none" stroke="#d89c56" stroke-width="2" d="M465.5,-180C465.5,-180 373.5,-180 373.5,-180 367.5,-180 361.5,-174 361.5,-168 361.5,-168 361.5,-156 361.5,-156 361.5,-150 367.5,-144 373.5,-144 373.5,-144 465.5,-144 465.5,-144 471.5,-144 477.5,-150 477.5,-156 477.5,-156 477.5,-168 477.5,-168 477.5,-174 471.5,-180 465.5,-180"/>
<text text-anchor="middle" x="419.5" y="-159.5" font-family="sans" font-size="10.00">coverage_Argos_info</text>
</g>
<!-- 7&#45;&gt;2 -->
<g id="edge7" class="edge"><title>7&#45;&gt;2</title>
<path fill="none" stroke="grey" stroke-width="2" d="M471.577,-143.966C507.61,-132.179 555.045,-116.663 589.25,-105.474"/>
<polygon fill="grey" stroke="grey" stroke-width="2" points="590.552,-108.731 598.969,-102.295 588.376,-102.078 590.552,-108.731"/>
</g>
<!-- 8 -->
<g id="node9" class="node"><title>8</title>
<path fill="none" stroke="#d87d56" stroke-width="2" d="M1109.5,-1476C1109.5,-1476 1053.5,-1476 1053.5,-1476 1047.5,-1476 1041.5,-1470 1041.5,-1464 1041.5,-1464 1041.5,-1452 1041.5,-1452 1041.5,-1446 1047.5,-1440 1053.5,-1440 1053.5,-1440 1109.5,-1440 1109.5,-1440 1115.5,-1440 1121.5,-1446 1121.5,-1452 1121.5,-1452 1121.5,-1464 1121.5,-1464 1121.5,-1470 1115.5,-1476 1109.5,-1476"/>
<text text-anchor="middle" x="1081.5" y="-1455.5" font-family="sans" font-size="10.00">iget_samples</text>
</g>
<!-- 27 -->
<g id="node28" class="node"><title>27</title>
<path fill="none" stroke="#9fd856" stroke-width="2" d="M1096.5,-1404C1096.5,-1404 1066.5,-1404 1066.5,-1404 1060.5,-1404 1054.5,-1398 1054.5,-1392 1054.5,-1392 1054.5,-1380 1054.5,-1380 1054.5,-1374 1060.5,-1368 1066.5,-1368 1066.5,-1368 1096.5,-1368 1096.5,-1368 1102.5,-1368 1108.5,-1374 1108.5,-1380 1108.5,-1380 1108.5,-1392 1108.5,-1392 1108.5,-1398 1102.5,-1404 1096.5,-1404"/>
<text text-anchor="middle" x="1081.5" y="-1383.5" font-family="sans" font-size="10.00">dedupe</text>
</g>
<!-- 8&#45;&gt;27 -->
<g id="edge47" class="edge"><title>8&#45;&gt;27</title>
<path fill="none" stroke="grey" stroke-width="2" d="M1081.5,-1439.7C1081.5,-1431.98 1081.5,-1422.71 1081.5,-1414.11"/>
<polygon fill="grey" stroke="grey" stroke-width="2" points="1085,-1414.1 1081.5,-1404.1 1078,-1414.1 1085,-1414.1"/>
</g>
<!-- 9 -->
<g id="node10" class="node"><title>9</title>
<path fill="none" stroke="#d88d56" stroke-width="2" d="M65,-756C65,-756 12,-756 12,-756 6,-756 0,-750 0,-744 0,-744 0,-732 0,-732 0,-726 6,-720 12,-720 12,-720 65,-720 65,-720 71,-720 77,-726 77,-732 77,-732 77,-744 77,-744 77,-750 71,-756 65,-756"/>
<text text-anchor="middle" x="38.5" y="-735.5" font-family="sans" font-size="10.00">iget_listTaxId</text>
</g>
<!-- 9&#45;&gt;0 -->
<g id="edge1" class="edge"><title>9&#45;&gt;0</title>
<path fill="none" stroke="grey" stroke-width="2" d="M77.3018,-732.934C186.914,-721.448 499.91,-688.649 638.755,-674.099"/>
<polygon fill="grey" stroke="grey" stroke-width="2" points="639.264,-677.565 648.845,-673.042 638.535,-670.603 639.264,-677.565"/>
</g>
<!-- 9&#45;&gt;22 -->
<g id="edge37" class="edge"><title>9&#45;&gt;22</title>
<path fill="none" stroke="grey" stroke-width="2" d="M39.6854,-719.961C41.434,-693.315 44.5,-640.155 44.5,-595 44.5,-595 44.5,-595 44.5,-161 44.5,-146.415 -15.2565,-147.289 174.5,-72 275.495,-31.9285 405.229,-22.1157 468.067,-19.7395"/>
<polygon fill="grey" stroke="grey" stroke-width="2" points="468.406,-23.2302 478.283,-19.3973 468.171,-16.2341 468.406,-23.2302"/>
</g>
<!-- 10 -->
<g id="node11" class="node"><title>10</title>
<path fill="none" stroke="#d8a456" stroke-width="2" d="M754.5,-324C754.5,-324 712.5,-324 712.5,-324 706.5,-324 700.5,-318 700.5,-312 700.5,-312 700.5,-300 700.5,-300 700.5,-294 706.5,-288 712.5,-288 712.5,-288 754.5,-288 754.5,-288 760.5,-288 766.5,-294 766.5,-300 766.5,-300 766.5,-312 766.5,-312 766.5,-318 760.5,-324 754.5,-324"/>
<text text-anchor="middle" x="733.5" y="-303.5" font-family="sans" font-size="10.00">count_info</text>
</g>
<!-- 20 -->
<g id="node21" class="node"><title>20</title>
<path fill="none" stroke="#78d856" stroke-width="2" d="M755,-252C755,-252 712,-252 712,-252 706,-252 700,-246 700,-240 700,-240 700,-228 700,-228 700,-222 706,-216 712,-216 712,-216 755,-216 755,-216 761,-216 767,-222 767,-228 767,-228 767,-240 767,-240 767,-246 761,-252 755,-252"/>
<text text-anchor="middle" x="733.5" y="-231.5" font-family="sans" font-size="10.00">getNames</text>
</g>
<!-- 10&#45;&gt;20 -->
<g id="edge30" class="edge"><title>10&#45;&gt;20</title>
<path fill="none" stroke="grey" stroke-width="2" d="M733.5,-287.697C733.5,-279.983 733.5,-270.712 733.5,-262.112"/>
<polygon fill="grey" stroke="grey" stroke-width="2" points="737,-262.104 733.5,-252.104 730,-262.104 737,-262.104"/>
</g>
<!-- 11 -->
<g id="node12" class="node"><title>11</title>
<path fill="none" stroke="#56d8b9" stroke-width="2" d="M1109,-1332C1109,-1332 1054,-1332 1054,-1332 1048,-1332 1042,-1326 1042,-1320 1042,-1320 1042,-1308 1042,-1308 1042,-1302 1048,-1296 1054,-1296 1054,-1296 1109,-1296 1109,-1296 1115,-1296 1121,-1302 1121,-1308 1121,-1308 1121,-1320 1121,-1320 1121,-1326 1115,-1332 1109,-1332"/>
<text text-anchor="middle" x="1081.5" y="-1311.5" font-family="sans" font-size="10.00">trimmomatic</text>
</g>
<!-- 12 -->
<g id="node13" class="node"><title>12</title>
<path fill="none" stroke="#56d8c9" stroke-width="2" d="M1102.5,-1260C1102.5,-1260 1060.5,-1260 1060.5,-1260 1054.5,-1260 1048.5,-1254 1048.5,-1248 1048.5,-1248 1048.5,-1236 1048.5,-1236 1048.5,-1230 1054.5,-1224 1060.5,-1224 1060.5,-1224 1102.5,-1224 1102.5,-1224 1108.5,-1224 1114.5,-1230 1114.5,-1236 1114.5,-1236 1114.5,-1248 1114.5,-1248 1114.5,-1254 1108.5,-1260 1102.5,-1260"/>
<text text-anchor="middle" x="1081.5" y="-1239.5" font-family="sans" font-size="10.00">bwa_mem</text>
</g>
<!-- 11&#45;&gt;12 -->
<g id="edge20" class="edge"><title>11&#45;&gt;12</title>
<path fill="none" stroke="grey" stroke-width="2" d="M1081.5,-1295.7C1081.5,-1287.98 1081.5,-1278.71 1081.5,-1270.11"/>
<polygon fill="grey" stroke="grey" stroke-width="2" points="1085,-1270.1 1081.5,-1260.1 1078,-1270.1 1085,-1270.1"/>
</g>
<!-- 13 -->
<g id="node14" class="node"><title>13</title>
<path fill="none" stroke="#56d8d8" stroke-width="2" d="M1121.5,-1188C1121.5,-1188 1041.5,-1188 1041.5,-1188 1035.5,-1188 1029.5,-1182 1029.5,-1176 1029.5,-1176 1029.5,-1164 1029.5,-1164 1029.5,-1158 1035.5,-1152 1041.5,-1152 1041.5,-1152 1121.5,-1152 1121.5,-1152 1127.5,-1152 1133.5,-1158 1133.5,-1164 1133.5,-1164 1133.5,-1176 1133.5,-1176 1133.5,-1182 1127.5,-1188 1121.5,-1188"/>
<text text-anchor="middle" x="1081.5" y="-1167.5" font-family="sans" font-size="10.00">samtools_process</text>
</g>
<!-- 12&#45;&gt;13 -->
<g id="edge21" class="edge"><title>12&#45;&gt;13</title>
<path fill="none" stroke="grey" stroke-width="2" d="M1081.5,-1223.7C1081.5,-1215.98 1081.5,-1206.71 1081.5,-1198.11"/>
<polygon fill="grey" stroke="grey" stroke-width="2" points="1085,-1198.1 1081.5,-1188.1 1078,-1198.1 1085,-1198.1"/>
</g>
<!-- 14 -->
<g id="node15" class="node"><title>14</title>
<path fill="none" stroke="#56d0d8" stroke-width="2" d="M1083,-1116C1083,-1116 968,-1116 968,-1116 962,-1116 956,-1110 956,-1104 956,-1104 956,-1092 956,-1092 956,-1086 962,-1080 968,-1080 968,-1080 1083,-1080 1083,-1080 1089,-1080 1095,-1086 1095,-1092 1095,-1092 1095,-1104 1095,-1104 1095,-1110 1089,-1116 1083,-1116"/>
<text text-anchor="middle" x="1025.5" y="-1095.5" font-family="sans" font-size="10.00">samtools_get_unmapped</text>
</g>
<!-- 13&#45;&gt;14 -->
<g id="edge22" class="edge"><title>13&#45;&gt;14</title>
<path fill="none" stroke="grey" stroke-width="2" d="M1067.66,-1151.7C1061.01,-1143.39 1052.92,-1133.28 1045.61,-1124.14"/>
<polygon fill="grey" stroke="grey" stroke-width="2" points="1048.16,-1121.73 1039.18,-1116.1 1042.7,-1126.1 1048.16,-1121.73"/>
</g>
<!-- 33 -->
<g id="node34" class="node"><title>33</title>
<path fill="none" stroke="#567bd8" stroke-width="2" d="M1193.5,-180C1193.5,-180 1115.5,-180 1115.5,-180 1109.5,-180 1103.5,-174 1103.5,-168 1103.5,-168 1103.5,-156 1103.5,-156 1103.5,-150 1109.5,-144 1115.5,-144 1115.5,-144 1193.5,-144 1193.5,-144 1199.5,-144 1205.5,-150 1205.5,-156 1205.5,-156 1205.5,-168 1205.5,-168 1205.5,-174 1199.5,-180 1193.5,-180"/>
<text text-anchor="middle" x="1154.5" y="-159.5" font-family="sans" font-size="10.00">samtools_flagstat</text>
</g>
<!-- 13&#45;&gt;33 -->
<g id="edge53" class="edge"><title>13&#45;&gt;33</title>
<path fill="none" stroke="grey" stroke-width="2" d="M1093.31,-1151.96C1110.01,-1126.16 1138.5,-1075.08 1138.5,-1027 1138.5,-1027 1138.5,-1027 1138.5,-305 1138.5,-264.963 1144.86,-218.973 1149.56,-190.447"/>
<polygon fill="grey" stroke="grey" stroke-width="2" points="1153.04,-190.862 1151.26,-180.418 1146.14,-189.69 1153.04,-190.862"/>
</g>
<!-- 14&#45;&gt;3 -->
<g id="edge12" class="edge"><title>14&#45;&gt;3</title>
<path fill="none" stroke="grey" stroke-width="2" d="M1025.5,-1079.7C1025.5,-1071.98 1025.5,-1062.71 1025.5,-1054.11"/>
<polygon fill="grey" stroke="grey" stroke-width="2" points="1029,-1054.1 1025.5,-1044.1 1022,-1054.1 1029,-1054.1"/>
</g>
<!-- 21 -->
<g id="node22" class="node"><title>21</title>
<path fill="none" stroke="#d86e56" stroke-width="2" d="M935.5,-1044C935.5,-1044 867.5,-1044 867.5,-1044 861.5,-1044 855.5,-1038 855.5,-1032 855.5,-1032 855.5,-1020 855.5,-1020 855.5,-1014 861.5,-1008 867.5,-1008 867.5,-1008 935.5,-1008 935.5,-1008 941.5,-1008 947.5,-1014 947.5,-1020 947.5,-1020 947.5,-1032 947.5,-1032 947.5,-1038 941.5,-1044 935.5,-1044"/>
<text text-anchor="middle" x="901.5" y="-1023.5" font-family="sans" font-size="10.00">bwa_mem_MS2</text>
</g>
<!-- 14&#45;&gt;21 -->
<g id="edge31" class="edge"><title>14&#45;&gt;21</title>
<path fill="none" stroke="grey" stroke-width="2" d="M995.166,-1079.88C978.803,-1070.64 958.417,-1059.13 940.846,-1049.21"/>
<polygon fill="grey" stroke="grey" stroke-width="2" points="942.379,-1046.06 931.95,-1044.19 938.938,-1052.15 942.379,-1046.06"/>
</g>
<!-- 28 -->
<g id="node29" class="node"><title>28</title>
<path fill="none" stroke="#88d856" stroke-width="2" d="M444.5,-540C444.5,-540 372.5,-540 372.5,-540 366.5,-540 360.5,-534 360.5,-528 360.5,-528 360.5,-516 360.5,-516 360.5,-510 366.5,-504 372.5,-504 372.5,-504 444.5,-504 444.5,-504 450.5,-504 456.5,-510 456.5,-516 456.5,-516 456.5,-528 456.5,-528 456.5,-534 450.5,-540 444.5,-540"/>
<text text-anchor="middle" x="408.5" y="-519.5" font-family="sans" font-size="10.00">iget_db_bacteria</text>
</g>
<!-- 15&#45;&gt;28 -->
<g id="edge48" class="edge"><title>15&#45;&gt;28</title>
<path fill="none" stroke="grey" stroke-width="2" d="M680.438,-586.665C632.407,-575.42 531.254,-551.738 466.768,-536.641"/>
<polygon fill="grey" stroke="grey" stroke-width="2" points="467.282,-533.167 456.747,-534.295 465.686,-539.983 467.282,-533.167"/>
</g>
<!-- 31 -->
<g id="node32" class="node"><title>31</title>
<path fill="none" stroke="#61d856" stroke-width="2" d="M744.5,-540C744.5,-540 670.5,-540 670.5,-540 664.5,-540 658.5,-534 658.5,-528 658.5,-528 658.5,-516 658.5,-516 658.5,-510 664.5,-504 670.5,-504 670.5,-504 744.5,-504 744.5,-504 750.5,-504 756.5,-510 756.5,-516 756.5,-516 756.5,-528 756.5,-528 756.5,-534 750.5,-540 744.5,-540"/>
<text text-anchor="middle" x="707.5" y="-519.5" font-family="sans" font-size="10.00">vir_fun_par_blast</text>
</g>
<!-- 15&#45;&gt;31 -->
<g id="edge51" class="edge"><title>15&#45;&gt;31</title>
<path fill="none" stroke="grey" stroke-width="2" d="M707.5,-575.697C707.5,-567.983 707.5,-558.712 707.5,-550.112"/>
<polygon fill="grey" stroke="grey" stroke-width="2" points="711,-550.104 707.5,-540.104 704,-550.104 711,-550.104"/>
</g>
<!-- 16 -->
<g id="node17" class="node"><title>16</title>
<path fill="none" stroke="#d8cb56" stroke-width="2" d="M859,-180C859,-180 726,-180 726,-180 720,-180 714,-174 714,-168 714,-168 714,-156 714,-156 714,-150 720,-144 726,-144 726,-144 859,-144 859,-144 865,-144 871,-150 871,-156 871,-156 871,-168 871,-168 871,-174 865,-180 859,-180"/>
<text text-anchor="middle" x="792.5" y="-159.5" font-family="sans" font-size="10.00">coverage_Fungi_Parasite_info</text>
</g>
<!-- 16&#45;&gt;2 -->
<g id="edge11" class="edge"><title>16&#45;&gt;2</title>
<path fill="none" stroke="grey" stroke-width="2" d="M753.604,-143.876C730.554,-133.728 701.278,-120.84 677.402,-110.328"/>
<polygon fill="grey" stroke="grey" stroke-width="2" points="678.769,-107.105 668.206,-106.279 675.948,-113.512 678.769,-107.105"/>
</g>
<!-- 17 -->
<g id="node18" class="node"><title>17</title>
<path fill="none" stroke="#d6d856" stroke-width="2" d="M559,-108C559,-108 452,-108 452,-108 446,-108 440,-102 440,-96 440,-96 440,-84 440,-84 440,-78 446,-72 452,-72 452,-72 559,-72 559,-72 565,-72 571,-78 571,-84 571,-84 571,-96 571,-96 571,-102 565,-108 559,-108"/>
<text text-anchor="middle" x="505.5" y="-87.5" font-family="sans" font-size="10.00">create_tab_info_contigs</text>
</g>
<!-- 17&#45;&gt;22 -->
<g id="edge40" class="edge"><title>17&#45;&gt;22</title>
<path fill="none" stroke="grey" stroke-width="2" d="M505.5,-71.6966C505.5,-63.9827 505.5,-54.7125 505.5,-46.1124"/>
<polygon fill="grey" stroke="grey" stroke-width="2" points="509,-46.1043 505.5,-36.1043 502,-46.1044 509,-46.1043"/>
</g>
<!-- 18 -->
<g id="node19" class="node"><title>18</title>
<path fill="none" stroke="#c6d856" stroke-width="2" d="M413,-324C413,-324 312,-324 312,-324 306,-324 300,-318 300,-312 300,-312 300,-300 300,-300 300,-294 306,-288 312,-288 312,-288 413,-288 413,-288 419,-288 425,-294 425,-300 425,-300 425,-312 425,-312 425,-318 419,-324 413,-324"/>
<text text-anchor="middle" x="362.5" y="-303.5" font-family="sans" font-size="10.00">count_info_argos_silva</text>
</g>
<!-- 32 -->
<g id="node33" class="node"><title>32</title>
<path fill="none" stroke="#b6d856" stroke-width="2" d="M413,-252C413,-252 312,-252 312,-252 306,-252 300,-246 300,-240 300,-240 300,-228 300,-228 300,-222 306,-216 312,-216 312,-216 413,-216 413,-216 419,-216 425,-222 425,-228 425,-228 425,-240 425,-240 425,-246 419,-252 413,-252"/>
<text text-anchor="middle" x="362.5" y="-231.5" font-family="sans" font-size="10.00">getNames_argos_silva</text>
</g>
<!-- 18&#45;&gt;32 -->
<g id="edge52" class="edge"><title>18&#45;&gt;32</title>
<path fill="none" stroke="grey" stroke-width="2" d="M362.5,-287.697C362.5,-279.983 362.5,-270.712 362.5,-262.112"/>
<polygon fill="grey" stroke="grey" stroke-width="2" points="366,-262.104 362.5,-252.104 359,-262.104 366,-262.104"/>
</g>
<!-- 19 -->
<g id="node20" class="node"><title>19</title>
<path fill="none" stroke="#56b1d8" stroke-width="2" d="M438.5,-468C438.5,-468 378.5,-468 378.5,-468 372.5,-468 366.5,-462 366.5,-456 366.5,-456 366.5,-444 366.5,-444 366.5,-438 372.5,-432 378.5,-432 378.5,-432 438.5,-432 438.5,-432 444.5,-432 450.5,-438 450.5,-444 450.5,-444 450.5,-456 450.5,-456 450.5,-462 444.5,-468 438.5,-468"/>
<text text-anchor="middle" x="408.5" y="-447.5" font-family="sans" font-size="10.00">bacteria_blast</text>
</g>
<!-- 34 -->
<g id="node35" class="node"><title>34</title>
<path fill="none" stroke="#56d85b" stroke-width="2" d="M446,-396C446,-396 371,-396 371,-396 365,-396 359,-390 359,-384 359,-384 359,-372 359,-372 359,-366 365,-360 371,-360 371,-360 446,-360 446,-360 452,-360 458,-366 458,-372 458,-372 458,-384 458,-384 458,-390 452,-396 446,-396"/>
<text text-anchor="middle" x="408.5" y="-375.5" font-family="sans" font-size="10.00">extract_info_bact</text>
</g>
<!-- 19&#45;&gt;34 -->
<g id="edge54" class="edge"><title>19&#45;&gt;34</title>
<path fill="none" stroke="grey" stroke-width="2" d="M408.5,-431.697C408.5,-423.983 408.5,-414.712 408.5,-406.112"/>
<polygon fill="grey" stroke="grey" stroke-width="2" points="412,-406.104 408.5,-396.104 405,-406.104 412,-406.104"/>
</g>
<!-- 20&#45;&gt;16 -->
<g id="edge25" class="edge"><title>20&#45;&gt;16</title>
<path fill="none" stroke="grey" stroke-width="2" d="M748.084,-215.697C755.158,-207.305 763.783,-197.07 771.545,-187.861"/>
<polygon fill="grey" stroke="grey" stroke-width="2" points="774.315,-190.006 778.083,-180.104 768.963,-185.495 774.315,-190.006"/>
</g>
<!-- 35 -->
<g id="node36" class="node"><title>35</title>
<path fill="none" stroke="#56d86b" stroke-width="2" d="M683.5,-180C683.5,-180 583.5,-180 583.5,-180 577.5,-180 571.5,-174 571.5,-168 571.5,-168 571.5,-156 571.5,-156 571.5,-150 577.5,-144 583.5,-144 583.5,-144 683.5,-144 683.5,-144 689.5,-144 695.5,-150 695.5,-156 695.5,-156 695.5,-168 695.5,-168 695.5,-174 689.5,-180 683.5,-180"/>
<text text-anchor="middle" x="633.5" y="-159.5" font-family="sans" font-size="10.00">coverage_Viruses_info</text>
</g>
<!-- 20&#45;&gt;35 -->
<g id="edge55" class="edge"><title>20&#45;&gt;35</title>
<path fill="none" stroke="grey" stroke-width="2" d="M709.037,-215.876C696.204,-206.893 680.304,-195.763 666.406,-186.034"/>
<polygon fill="grey" stroke="grey" stroke-width="2" points="668.256,-183.057 658.057,-180.19 664.242,-188.792 668.256,-183.057"/>
</g>
<!-- 29 -->
<g id="node30" class="node"><title>29</title>
<path fill="none" stroke="#56d892" stroke-width="2" d="M935.5,-972C935.5,-972 829.5,-972 829.5,-972 823.5,-972 817.5,-966 817.5,-960 817.5,-960 817.5,-948 817.5,-948 817.5,-942 823.5,-936 829.5,-936 829.5,-936 935.5,-936 935.5,-936 941.5,-936 947.5,-942 947.5,-948 947.5,-948 947.5,-960 947.5,-960 947.5,-966 941.5,-972 935.5,-972"/>
<text text-anchor="middle" x="882.5" y="-951.5" font-family="sans" font-size="10.00">samtools_process_MS2</text>
</g>
<!-- 21&#45;&gt;29 -->
<g id="edge49" class="edge"><title>21&#45;&gt;29</title>
<path fill="none" stroke="grey" stroke-width="2" d="M896.803,-1007.7C894.687,-999.898 892.138,-990.509 889.782,-981.829"/>
<polygon fill="grey" stroke="grey" stroke-width="2" points="893.14,-980.838 887.143,-972.104 886.384,-982.672 893.14,-980.838"/>
</g>
<!-- 23&#45;&gt;22 -->
<g id="edge34" class="edge"><title>23&#45;&gt;22</title>
<path fill="none" stroke="grey" stroke-width="2" d="M192.546,-287.7C204.712,-236.304 241.128,-87.1515 257.5,-72 287.817,-43.9424 406.933,-28.5412 468.382,-22.317"/>
<polygon fill="grey" stroke="grey" stroke-width="2" points="468.83,-25.7899 478.44,-21.3282 468.145,-18.8235 468.83,-25.7899"/>
</g>
<!-- 24 -->
<g id="node25" class="node"><title>24</title>
<path fill="none" stroke="#afd856" stroke-width="2" d="M193.5,-180C193.5,-180 89.5,-180 89.5,-180 83.5,-180 77.5,-174 77.5,-168 77.5,-168 77.5,-156 77.5,-156 77.5,-150 83.5,-144 89.5,-144 89.5,-144 193.5,-144 193.5,-144 199.5,-144 205.5,-150 205.5,-156 205.5,-156 205.5,-168 205.5,-168 205.5,-174 199.5,-180 193.5,-180"/>
<text text-anchor="middle" x="141.5" y="-159.5" font-family="sans" font-size="10.00">samtools_flagstat_MS2</text>
</g>
<!-- 24&#45;&gt;2 -->
<g id="edge5" class="edge"><title>24&#45;&gt;2</title>
<path fill="none" stroke="grey" stroke-width="2" d="M205.581,-156.965C291.462,-150.715 448.29,-136.338 579.5,-108 582.67,-107.315 585.921,-106.525 589.178,-105.667"/>
<polygon fill="grey" stroke="grey" stroke-width="2" points="590.218,-109.01 598.895,-102.93 588.321,-102.272 590.218,-109.01"/>
</g>
<!-- 24&#45;&gt;22 -->
<g id="edge35" class="edge"><title>24&#45;&gt;22</title>
<path fill="none" stroke="grey" stroke-width="2" d="M151.487,-143.826C164.419,-123.246 188.962,-89.3716 219.5,-72 299.663,-26.3986 411.009,-18.8876 468.246,-18.3279"/>
<polygon fill="grey" stroke="grey" stroke-width="2" points="468.295,-21.8279 478.284,-18.2967 468.273,-14.8279 468.295,-21.8279"/>
</g>
<!-- 25&#45;&gt;22 -->
<g id="edge36" class="edge"><title>25&#45;&gt;22</title>
<path fill="none" stroke="grey" stroke-width="2" d="M874.46,-287.842C887.838,-256.194 910.482,-187.862 879.5,-144 801.506,-33.5829 621.316,-19.1333 542.988,-18.2985"/>
<polygon fill="grey" stroke="grey" stroke-width="2" points="542.645,-14.7974 532.633,-18.2625 542.621,-21.7973 542.645,-14.7974"/>
</g>
<!-- 26&#45;&gt;1 -->
<g id="edge3" class="edge"><title>26&#45;&gt;1</title>
<path fill="none" stroke="grey" stroke-width="2" d="M1025.5,-935.951C1025.5,-909.292 1025.5,-856.115 1025.5,-811 1025.5,-811 1025.5,-811 1025.5,-305 1025.5,-264.996 1025.5,-218.653 1025.5,-190.08"/>
<polygon fill="grey" stroke="grey" stroke-width="2" points="1029,-190.049 1025.5,-180.049 1022,-190.049 1029,-190.049"/>
</g>
<!-- 36 -->
<g id="node37" class="node"><title>36</title>
<path fill="none" stroke="#5673d8" stroke-width="2" d="M920.5,-900C920.5,-900 846.5,-900 846.5,-900 840.5,-900 834.5,-894 834.5,-888 834.5,-888 834.5,-876 834.5,-876 834.5,-870 840.5,-864 846.5,-864 846.5,-864 920.5,-864 920.5,-864 926.5,-864 932.5,-870 932.5,-876 932.5,-876 932.5,-888 932.5,-888 932.5,-894 926.5,-900 920.5,-900"/>
<text text-anchor="middle" x="883.5" y="-879.5" font-family="sans" font-size="10.00">samtools_merge</text>
</g>
<!-- 26&#45;&gt;36 -->
<g id="edge58" class="edge"><title>26&#45;&gt;36</title>
<path fill="none" stroke="grey" stroke-width="2" d="M990.763,-935.876C971.681,-926.469 947.821,-914.708 927.453,-904.667"/>
<polygon fill="grey" stroke="grey" stroke-width="2" points="928.888,-901.472 918.371,-900.19 925.792,-907.751 928.888,-901.472"/>
</g>
<!-- 27&#45;&gt;11 -->
<g id="edge19" class="edge"><title>27&#45;&gt;11</title>
<path fill="none" stroke="grey" stroke-width="2" d="M1081.5,-1367.7C1081.5,-1359.98 1081.5,-1350.71 1081.5,-1342.11"/>
<polygon fill="grey" stroke="grey" stroke-width="2" points="1085,-1342.1 1081.5,-1332.1 1078,-1342.1 1085,-1342.1"/>
</g>
<!-- 28&#45;&gt;19 -->
<g id="edge29" class="edge"><title>28&#45;&gt;19</title>
<path fill="none" stroke="grey" stroke-width="2" d="M408.5,-503.697C408.5,-495.983 408.5,-486.712 408.5,-478.112"/>
<polygon fill="grey" stroke="grey" stroke-width="2" points="412,-478.104 408.5,-468.104 405,-478.104 412,-478.104"/>
</g>
<!-- 28&#45;&gt;22 -->
<g id="edge38" class="edge"><title>28&#45;&gt;22</title>
<path fill="none" stroke="grey" stroke-width="2" d="M373.219,-503.805C332.627,-481.257 271.5,-437.578 271.5,-379 271.5,-379 271.5,-379 271.5,-161 271.5,-70.1097 402.123,-35.768 468.181,-24.2121"/>
<polygon fill="grey" stroke="grey" stroke-width="2" points="468.908,-27.6394 478.199,-22.5479 467.761,-20.734 468.908,-27.6394"/>
</g>
<!-- 29&#45;&gt;24 -->
<g id="edge43" class="edge"><title>29&#45;&gt;24</title>
<path fill="none" stroke="grey" stroke-width="2" d="M817.257,-947.949C630.222,-932.603 105.5,-883.122 105.5,-811 105.5,-811 105.5,-811 105.5,-305 105.5,-263.775 119.933,-217.826 130.522,-189.662"/>
<polygon fill="grey" stroke="grey" stroke-width="2" points="133.865,-190.722 134.215,-180.133 127.338,-188.192 133.865,-190.722"/>
</g>
<!-- 29&#45;&gt;36 -->
<g id="edge57" class="edge"><title>29&#45;&gt;36</title>
<path fill="none" stroke="grey" stroke-width="2" d="M882.747,-935.697C882.857,-927.983 882.99,-918.712 883.113,-910.112"/>
<polygon fill="grey" stroke="grey" stroke-width="2" points="886.612,-910.153 883.256,-900.104 879.613,-910.053 886.612,-910.153"/>
</g>
<!-- 30 -->
<g id="node31" class="node"><title>30</title>
<path fill="none" stroke="#68d856" stroke-width="2" d="M754,-396C754,-396 705,-396 705,-396 699,-396 693,-390 693,-384 693,-384 693,-372 693,-372 693,-366 699,-360 705,-360 705,-360 754,-360 754,-360 760,-360 766,-366 766,-372 766,-372 766,-384 766,-384 766,-390 760,-396 754,-396"/>
<text text-anchor="middle" x="729.5" y="-375.5" font-family="sans" font-size="10.00">extract_info</text>
</g>
<!-- 30&#45;&gt;10 -->
<g id="edge18" class="edge"><title>30&#45;&gt;10</title>
<path fill="none" stroke="grey" stroke-width="2" d="M730.489,-359.697C730.93,-351.983 731.459,-342.712 731.951,-334.112"/>
<polygon fill="grey" stroke="grey" stroke-width="2" points="735.446,-334.288 732.523,-324.104 728.458,-333.888 735.446,-334.288"/>
</g>
<!-- 30&#45;&gt;16 -->
<g id="edge26" class="edge"><title>30&#45;&gt;16</title>
<path fill="none" stroke="grey" stroke-width="2" d="M749.246,-359.843C758.85,-350.308 769.575,-337.632 775.5,-324 794.524,-280.229 795.791,-223.69 794.486,-190.579"/>
<polygon fill="grey" stroke="grey" stroke-width="2" points="797.967,-190.111 793.967,-180.3 790.976,-190.464 797.967,-190.111"/>
</g>
<!-- 30&#45;&gt;17 -->
<g id="edge27" class="edge"><title>30&#45;&gt;17</title>
<path fill="none" stroke="grey" stroke-width="2" d="M707.83,-359.838C696.431,-350.114 682.737,-337.265 672.5,-324 639.212,-280.868 650.795,-256.635 614.5,-216 595.775,-195.036 582.016,-200.23 562.5,-180 544.409,-161.247 528.849,-135.913 518.579,-117.07"/>
<polygon fill="grey" stroke="grey" stroke-width="2" points="521.619,-115.331 513.84,-108.138 515.435,-118.612 521.619,-115.331"/>
</g>
<!-- 30&#45;&gt;25 -->
<g id="edge44" class="edge"><title>30&#45;&gt;25</title>
<path fill="none" stroke="grey" stroke-width="2" d="M763.014,-359.876C781.341,-350.512 804.236,-338.814 823.828,-328.803"/>
<polygon fill="grey" stroke="grey" stroke-width="2" points="825.545,-331.857 832.857,-324.19 822.36,-325.623 825.545,-331.857"/>
</g>
<!-- 30&#45;&gt;35 -->
<g id="edge56" class="edge"><title>30&#45;&gt;35</title>
<path fill="none" stroke="grey" stroke-width="2" d="M715.189,-359.648C707.446,-349.664 698.137,-336.628 691.5,-324 667.927,-279.149 650.022,-222.604 640.694,-189.851"/>
<polygon fill="grey" stroke="grey" stroke-width="2" points="644.031,-188.788 637.971,-180.098 637.289,-190.671 644.031,-188.788"/>
</g>
<!-- 31&#45;&gt;30 -->
<g id="edge50" class="edge"><title>31&#45;&gt;30</title>
<path fill="none" stroke="grey" stroke-width="2" d="M710.154,-503.871C713.903,-479.67 720.791,-435.211 725.256,-406.393"/>
<polygon fill="grey" stroke="grey" stroke-width="2" points="728.764,-406.607 726.837,-396.189 721.847,-405.535 728.764,-406.607"/>
</g>
<!-- 32&#45;&gt;7 -->
<g id="edge16" class="edge"><title>32&#45;&gt;7</title>
<path fill="none" stroke="grey" stroke-width="2" d="M376.59,-215.697C383.423,-207.305 391.757,-197.07 399.256,-187.861"/>
<polygon fill="grey" stroke="grey" stroke-width="2" points="401.972,-190.069 405.572,-180.104 396.544,-185.649 401.972,-190.069"/>
</g>
<!-- 33&#45;&gt;2 -->
<g id="edge10" class="edge"><title>33&#45;&gt;2</title>
<path fill="none" stroke="grey" stroke-width="2" d="M1103.25,-145.889C1100.3,-145.204 1097.37,-144.567 1094.5,-144 943.49,-114.13 761.08,-99.323 678.272,-93.7339"/>
<polygon fill="grey" stroke="grey" stroke-width="2" points="678.414,-90.2357 668.204,-93.0669 677.951,-97.2204 678.414,-90.2357"/>
</g>
<!-- 33&#45;&gt;22 -->
<g id="edge39" class="edge"><title>33&#45;&gt;22</title>
<path fill="none" stroke="grey" stroke-width="2" d="M1129.3,-143.945C1097.21,-123.154 1039.3,-88.7277 984.5,-72 825.426,-23.4461 624.575,-18.3401 542.745,-18.483"/>
<polygon fill="grey" stroke="grey" stroke-width="2" points="542.668,-14.9832 532.684,-18.5288 542.7,-21.9831 542.668,-14.9832"/>
</g>
<!-- 34&#45;&gt;5 -->
<g id="edge14" class="edge"><title>34&#45;&gt;5</title>
<path fill="none" stroke="grey" stroke-width="2" d="M441.525,-359.876C459.585,-350.512 482.145,-338.814 501.451,-328.803"/>
<polygon fill="grey" stroke="grey" stroke-width="2" points="503.082,-331.9 510.348,-324.19 499.86,-325.686 503.082,-331.9"/>
</g>
<!-- 34&#45;&gt;7 -->
<g id="edge17" class="edge"><title>34&#45;&gt;7</title>
<path fill="none" stroke="grey" stroke-width="2" d="M419.125,-359.556C424.598,-349.543 430.698,-336.509 433.5,-324 443.993,-277.161 439.681,-263.6 433.5,-216 432.397,-207.506 430.339,-198.434 428.134,-190.24"/>
<polygon fill="grey" stroke="grey" stroke-width="2" points="431.445,-189.087 425.324,-180.44 424.716,-191.017 431.445,-189.087"/>
</g>
<!-- 34&#45;&gt;18 -->
<g id="edge28" class="edge"><title>34&#45;&gt;18</title>
<path fill="none" stroke="grey" stroke-width="2" d="M397.129,-359.697C391.782,-351.559 385.296,-341.689 379.389,-332.701"/>
<polygon fill="grey" stroke="grey" stroke-width="2" points="382.157,-330.539 373.74,-324.104 376.307,-334.384 382.157,-330.539"/>
</g>
<!-- 34&#45;&gt;23 -->
<g id="edge42" class="edge"><title>34&#45;&gt;23</title>
<path fill="none" stroke="grey" stroke-width="2" d="M358.853,-361.203C327.249,-351.147 286.017,-338.028 252.034,-327.215"/>
<polygon fill="grey" stroke="grey" stroke-width="2" points="252.789,-323.783 242.198,-324.086 250.666,-330.453 252.789,-323.783"/>
</g>
<!-- 35&#45;&gt;2 -->
<g id="edge8" class="edge"><title>35&#45;&gt;2</title>
<path fill="none" stroke="grey" stroke-width="2" d="M633.5,-143.697C633.5,-135.983 633.5,-126.712 633.5,-118.112"/>
<polygon fill="grey" stroke="grey" stroke-width="2" points="637,-118.104 633.5,-108.104 630,-118.104 637,-118.104"/>
</g>
<!-- 37 -->
<g id="node38" class="node"><title>37</title>
<path fill="none" stroke="#5663d8" stroke-width="2" d="M946.5,-828C946.5,-828 820.5,-828 820.5,-828 814.5,-828 808.5,-822 808.5,-816 808.5,-816 808.5,-804 808.5,-804 808.5,-798 814.5,-792 820.5,-792 820.5,-792 946.5,-792 946.5,-792 952.5,-792 958.5,-798 958.5,-804 958.5,-804 958.5,-816 958.5,-816 958.5,-822 952.5,-828 946.5,-828"/>
<text text-anchor="middle" x="883.5" y="-807.5" font-family="sans" font-size="10.00">samtools_get_unmapped_2</text>
</g>
<!-- 36&#45;&gt;37 -->
<g id="edge59" class="edge"><title>36&#45;&gt;37</title>
<path fill="none" stroke="grey" stroke-width="2" d="M883.5,-863.697C883.5,-855.983 883.5,-846.712 883.5,-838.112"/>
<polygon fill="grey" stroke="grey" stroke-width="2" points="887,-838.104 883.5,-828.104 880,-838.104 887,-838.104"/>
</g>
<!-- 37&#45;&gt;6 -->
<g id="edge15" class="edge"><title>37&#45;&gt;6</title>
<path fill="none" stroke="grey" stroke-width="2" d="M865.455,-791.697C856.438,-783.05 845.382,-772.449 835.557,-763.027"/>
<polygon fill="grey" stroke="grey" stroke-width="2" points="837.978,-760.499 828.337,-756.104 833.133,-765.552 837.978,-760.499"/>
</g>
<!-- 37&#45;&gt;38 -->
<g id="edge61" class="edge"><title>37&#45;&gt;38</title>
<path fill="none" stroke="grey" stroke-width="2" d="M883.741,-791.871C884.082,-767.67 884.708,-723.211 885.114,-694.393"/>
<polygon fill="grey" stroke="grey" stroke-width="2" points="888.617,-694.238 885.258,-684.189 881.617,-694.139 888.617,-694.238"/>
</g>
<!-- 38&#45;&gt;2 -->
<g id="edge9" class="edge"><title>38&#45;&gt;2</title>
<path fill="none" stroke="grey" stroke-width="2" d="M896.274,-647.813C911.506,-621.828 937.5,-570.519 937.5,-523 937.5,-523 937.5,-523 937.5,-305 937.5,-228.943 936.75,-194.072 879.5,-144 849.985,-118.185 740.908,-102.514 678.359,-95.4537"/>
<polygon fill="grey" stroke="grey" stroke-width="2" points="678.69,-91.969 668.367,-94.3543 677.925,-98.927 678.69,-91.969"/>
</g>
</g>
</svg>
