<?xml version="1.0" encoding="UTF-8" standalone="no"?>
<!DOCTYPE svg PUBLIC "-//W3C//DTD SVG 1.1//EN"
 "http://www.w3.org/Graphics/SVG/1.1/DTD/svg11.dtd">
<!-- Generated by graphviz version 2.38.0 (20140413.2041)
 -->
<!-- Title: snakemake_dag Pages: 1 -->
<svg width="1206pt" height="1484pt"
 viewBox="0.00 0.00 1205.50 1484.00" xmlns="http://www.w3.org/2000/svg" xmlns:xlink="http://www.w3.org/1999/xlink">
<g id="graph0" class="graph" transform="scale(1 1) rotate(0) translate(4 1480)">
<title>snakemake_dag</title>
<polygon fill="white" stroke="none" points="-4,4 -4,-1480 1201.5,-1480 1201.5,4 -4,4"/>
<!-- 0 -->
<g id="node1" class="node"><title>0</title>
<path fill="none" stroke="#c6d856" stroke-width="2" d="M892.5,-900C892.5,-900 818.5,-900 818.5,-900 812.5,-900 806.5,-894 806.5,-888 806.5,-888 806.5,-876 806.5,-876 806.5,-870 812.5,-864 818.5,-864 818.5,-864 892.5,-864 892.5,-864 898.5,-864 904.5,-870 904.5,-876 904.5,-876 904.5,-888 904.5,-888 904.5,-894 898.5,-900 892.5,-900"/>
<text text-anchor="middle" x="855.5" y="-879.5" font-family="sans" font-size="10.00">samtools_merge</text>
</g>
<!-- 7 -->
<g id="node8" class="node"><title>7</title>
<path fill="none" stroke="#d87d56" stroke-width="2" d="M911.5,-828C911.5,-828 785.5,-828 785.5,-828 779.5,-828 773.5,-822 773.5,-816 773.5,-816 773.5,-804 773.5,-804 773.5,-798 779.5,-792 785.5,-792 785.5,-792 911.5,-792 911.5,-792 917.5,-792 923.5,-798 923.5,-804 923.5,-804 923.5,-816 923.5,-816 923.5,-822 917.5,-828 911.5,-828"/>
<text text-anchor="middle" x="848.5" y="-807.5" font-family="sans" font-size="10.00">samtools_get_unmapped_2</text>
</g>
<!-- 0&#45;&gt;7 -->
<g id="edge10" class="edge"><title>0&#45;&gt;7</title>
<path fill="none" stroke="grey" stroke-width="2" d="M853.77,-863.697C852.998,-855.983 852.071,-846.712 851.211,-838.112"/>
<polygon fill="grey" stroke="grey" stroke-width="2" points="854.688,-837.706 850.21,-828.104 847.723,-838.403 854.688,-837.706"/>
</g>
<!-- 1 -->
<g id="node2" class="node"><title>1</title>
<path fill="none" stroke="#d85656" stroke-width="2" d="M1083.5,-1260C1083.5,-1260 1041.5,-1260 1041.5,-1260 1035.5,-1260 1029.5,-1254 1029.5,-1248 1029.5,-1248 1029.5,-1236 1029.5,-1236 1029.5,-1230 1035.5,-1224 1041.5,-1224 1041.5,-1224 1083.5,-1224 1083.5,-1224 1089.5,-1224 1095.5,-1230 1095.5,-1236 1095.5,-1236 1095.5,-1248 1095.5,-1248 1095.5,-1254 1089.5,-1260 1083.5,-1260"/>
<text text-anchor="middle" x="1062.5" y="-1239.5" font-family="sans" font-size="10.00">bwa_mem</text>
</g>
<!-- 17 -->
<g id="node18" class="node"><title>17</title>
<path fill="none" stroke="#56d8c9" stroke-width="2" d="M1102.5,-1188C1102.5,-1188 1022.5,-1188 1022.5,-1188 1016.5,-1188 1010.5,-1182 1010.5,-1176 1010.5,-1176 1010.5,-1164 1010.5,-1164 1010.5,-1158 1016.5,-1152 1022.5,-1152 1022.5,-1152 1102.5,-1152 1102.5,-1152 1108.5,-1152 1114.5,-1158 1114.5,-1164 1114.5,-1164 1114.5,-1176 1114.5,-1176 1114.5,-1182 1108.5,-1188 1102.5,-1188"/>
<text text-anchor="middle" x="1062.5" y="-1167.5" font-family="sans" font-size="10.00">samtools_process</text>
</g>
<!-- 1&#45;&gt;17 -->
<g id="edge28" class="edge"><title>1&#45;&gt;17</title>
<path fill="none" stroke="grey" stroke-width="2" d="M1062.5,-1223.7C1062.5,-1215.98 1062.5,-1206.71 1062.5,-1198.11"/>
<polygon fill="grey" stroke="grey" stroke-width="2" points="1066,-1198.1 1062.5,-1188.1 1059,-1198.1 1066,-1198.1"/>
</g>
<!-- 2 -->
<g id="node3" class="node"><title>2</title>
<path fill="none" stroke="#d88d56" stroke-width="2" d="M322,-684C322,-684 231,-684 231,-684 225,-684 219,-678 219,-672 219,-672 219,-660 219,-660 219,-654 225,-648 231,-648 231,-648 322,-648 322,-648 328,-648 334,-654 334,-660 334,-660 334,-672 334,-672 334,-678 328,-684 322,-684"/>
<text text-anchor="middle" x="276.5" y="-663.5" font-family="sans" font-size="10.00">iget_readNames_list</text>
</g>
<!-- 23 -->
<g id="node24" class="node"><title>23</title>
<path fill="none" stroke="#d6d856" stroke-width="2" d="M649.5,-612C649.5,-612 619.5,-612 619.5,-612 613.5,-612 607.5,-606 607.5,-600 607.5,-600 607.5,-588 607.5,-588 607.5,-582 613.5,-576 619.5,-576 619.5,-576 649.5,-576 649.5,-576 655.5,-576 661.5,-582 661.5,-588 661.5,-588 661.5,-600 661.5,-600 661.5,-606 655.5,-612 649.5,-612"/>
<text text-anchor="middle" x="634.5" y="-591.5" font-family="sans" font-size="10.00">seqkit</text>
</g>
<!-- 2&#45;&gt;23 -->
<g id="edge35" class="edge"><title>2&#45;&gt;23</title>
<path fill="none" stroke="grey" stroke-width="2" d="M334.019,-653.753C408.162,-639.256 534.954,-614.464 597.451,-602.244"/>
<polygon fill="grey" stroke="grey" stroke-width="2" points="598.128,-605.678 607.27,-600.324 596.785,-598.808 598.128,-605.678"/>
</g>
<!-- 3 -->
<g id="node4" class="node"><title>3</title>
<path fill="none" stroke="#56d85b" stroke-width="2" d="M716,-252C716,-252 673,-252 673,-252 667,-252 661,-246 661,-240 661,-240 661,-228 661,-228 661,-222 667,-216 673,-216 673,-216 716,-216 716,-216 722,-216 728,-222 728,-228 728,-228 728,-240 728,-240 728,-246 722,-252 716,-252"/>
<text text-anchor="middle" x="694.5" y="-231.5" font-family="sans" font-size="10.00">getNames</text>
</g>
<!-- 24 -->
<g id="node25" class="node"><title>24</title>
<path fill="none" stroke="#9fd856" stroke-width="2" d="M813,-180C813,-180 680,-180 680,-180 674,-180 668,-174 668,-168 668,-168 668,-156 668,-156 668,-150 674,-144 680,-144 680,-144 813,-144 813,-144 819,-144 825,-150 825,-156 825,-156 825,-168 825,-168 825,-174 819,-180 813,-180"/>
<text text-anchor="middle" x="746.5" y="-159.5" font-family="sans" font-size="10.00">coverage_Fungi_Parasite_info</text>
</g>
<!-- 3&#45;&gt;24 -->
<g id="edge37" class="edge"><title>3&#45;&gt;24</title>
<path fill="none" stroke="grey" stroke-width="2" d="M707.354,-215.697C713.525,-207.389 721.037,-197.277 727.824,-188.141"/>
<polygon fill="grey" stroke="grey" stroke-width="2" points="730.64,-190.219 733.794,-180.104 725.021,-186.045 730.64,-190.219"/>
</g>
<!-- 37 -->
<g id="node38" class="node"><title>37</title>
<path fill="none" stroke="#5663d8" stroke-width="2" d="M637.5,-180C637.5,-180 537.5,-180 537.5,-180 531.5,-180 525.5,-174 525.5,-168 525.5,-168 525.5,-156 525.5,-156 525.5,-150 531.5,-144 537.5,-144 537.5,-144 637.5,-144 637.5,-144 643.5,-144 649.5,-150 649.5,-156 649.5,-156 649.5,-168 649.5,-168 649.5,-174 643.5,-180 637.5,-180"/>
<text text-anchor="middle" x="587.5" y="-159.5" font-family="sans" font-size="10.00">coverage_Viruses_info</text>
</g>
<!-- 3&#45;&gt;37 -->
<g id="edge59" class="edge"><title>3&#45;&gt;37</title>
<path fill="none" stroke="grey" stroke-width="2" d="M668.325,-215.876C654.464,-206.808 637.259,-195.552 622.289,-185.759"/>
<polygon fill="grey" stroke="grey" stroke-width="2" points="624.06,-182.735 613.776,-180.19 620.228,-188.593 624.06,-182.735"/>
</g>
<!-- 4 -->
<g id="node5" class="node"><title>4</title>
<path fill="none" stroke="#56d86b" stroke-width="2" d="M1043,-1044C1043,-1044 984,-1044 984,-1044 978,-1044 972,-1038 972,-1032 972,-1032 972,-1020 972,-1020 972,-1014 978,-1008 984,-1008 984,-1008 1043,-1008 1043,-1008 1049,-1008 1055,-1014 1055,-1020 1055,-1020 1055,-1032 1055,-1032 1055,-1038 1049,-1044 1043,-1044"/>
<text text-anchor="middle" x="1013.5" y="-1023.5" font-family="sans" font-size="10.00">bwa_mem_T1</text>
</g>
<!-- 16 -->
<g id="node17" class="node"><title>16</title>
<path fill="none" stroke="#56d8a9" stroke-width="2" d="M1061.5,-972C1061.5,-972 965.5,-972 965.5,-972 959.5,-972 953.5,-966 953.5,-960 953.5,-960 953.5,-948 953.5,-948 953.5,-942 959.5,-936 965.5,-936 965.5,-936 1061.5,-936 1061.5,-936 1067.5,-936 1073.5,-942 1073.5,-948 1073.5,-948 1073.5,-960 1073.5,-960 1073.5,-966 1067.5,-972 1061.5,-972"/>
<text text-anchor="middle" x="1013.5" y="-951.5" font-family="sans" font-size="10.00">samtools_process_T1</text>
</g>
<!-- 4&#45;&gt;16 -->
<g id="edge27" class="edge"><title>4&#45;&gt;16</title>
<path fill="none" stroke="grey" stroke-width="2" d="M1013.5,-1007.7C1013.5,-999.983 1013.5,-990.712 1013.5,-982.112"/>
<polygon fill="grey" stroke="grey" stroke-width="2" points="1017,-982.104 1013.5,-972.104 1010,-982.104 1017,-982.104"/>
</g>
<!-- 5 -->
<g id="node6" class="node"><title>5</title>
<path fill="none" stroke="#d86656" stroke-width="2" d="M715.5,-324C715.5,-324 673.5,-324 673.5,-324 667.5,-324 661.5,-318 661.5,-312 661.5,-312 661.5,-300 661.5,-300 661.5,-294 667.5,-288 673.5,-288 673.5,-288 715.5,-288 715.5,-288 721.5,-288 727.5,-294 727.5,-300 727.5,-300 727.5,-312 727.5,-312 727.5,-318 721.5,-324 715.5,-324"/>
<text text-anchor="middle" x="694.5" y="-303.5" font-family="sans" font-size="10.00">count_info</text>
</g>
<!-- 5&#45;&gt;3 -->
<g id="edge6" class="edge"><title>5&#45;&gt;3</title>
<path fill="none" stroke="grey" stroke-width="2" d="M694.5,-287.697C694.5,-279.983 694.5,-270.712 694.5,-262.112"/>
<polygon fill="grey" stroke="grey" stroke-width="2" points="698,-262.104 694.5,-252.104 691,-262.104 698,-262.104"/>
</g>
<!-- 6 -->
<g id="node7" class="node"><title>6</title>
<path fill="none" stroke="#d86e56" stroke-width="2" d="M372,-324C372,-324 273,-324 273,-324 267,-324 261,-318 261,-312 261,-312 261,-300 261,-300 261,-294 267,-288 273,-288 273,-288 372,-288 372,-288 378,-288 384,-294 384,-300 384,-300 384,-312 384,-312 384,-318 378,-324 372,-324"/>
<text text-anchor="middle" x="322.5" y="-303.5" font-family="sans" font-size="10.00">count_info_metaphlan</text>
</g>
<!-- 29 -->
<g id="node30" class="node"><title>29</title>
<path fill="none" stroke="#569ad8" stroke-width="2" d="M372.5,-252C372.5,-252 272.5,-252 272.5,-252 266.5,-252 260.5,-246 260.5,-240 260.5,-240 260.5,-228 260.5,-228 260.5,-222 266.5,-216 272.5,-216 272.5,-216 372.5,-216 372.5,-216 378.5,-216 384.5,-222 384.5,-228 384.5,-228 384.5,-240 384.5,-240 384.5,-246 378.5,-252 372.5,-252"/>
<text text-anchor="middle" x="322.5" y="-231.5" font-family="sans" font-size="10.00">getNames_metaphlan</text>
</g>
<!-- 6&#45;&gt;29 -->
<g id="edge44" class="edge"><title>6&#45;&gt;29</title>
<path fill="none" stroke="grey" stroke-width="2" d="M322.5,-287.697C322.5,-279.983 322.5,-270.712 322.5,-262.112"/>
<polygon fill="grey" stroke="grey" stroke-width="2" points="326,-262.104 322.5,-252.104 319,-262.104 326,-262.104"/>
</g>
<!-- 31 -->
<g id="node32" class="node"><title>31</title>
<path fill="none" stroke="#568ad8" stroke-width="2" d="M863.5,-684C863.5,-684 833.5,-684 833.5,-684 827.5,-684 821.5,-678 821.5,-672 821.5,-672 821.5,-660 821.5,-660 821.5,-654 827.5,-648 833.5,-648 833.5,-648 863.5,-648 863.5,-648 869.5,-648 875.5,-654 875.5,-660 875.5,-660 875.5,-672 875.5,-672 875.5,-678 869.5,-684 863.5,-684"/>
<text text-anchor="middle" x="848.5" y="-663.5" font-family="sans" font-size="10.00">infofile</text>
</g>
<!-- 7&#45;&gt;31 -->
<g id="edge46" class="edge"><title>7&#45;&gt;31</title>
<path fill="none" stroke="grey" stroke-width="2" d="M848.5,-791.871C848.5,-767.67 848.5,-723.211 848.5,-694.393"/>
<polygon fill="grey" stroke="grey" stroke-width="2" points="852,-694.189 848.5,-684.189 845,-694.189 852,-694.189"/>
</g>
<!-- 33 -->
<g id="node34" class="node"><title>33</title>
<path fill="none" stroke="#567bd8" stroke-width="2" d="M708,-756C708,-756 677,-756 677,-756 671,-756 665,-750 665,-744 665,-744 665,-732 665,-732 665,-726 671,-720 677,-720 677,-720 708,-720 708,-720 714,-720 720,-726 720,-732 720,-732 720,-744 720,-744 720,-750 714,-756 708,-756"/>
<text text-anchor="middle" x="692.5" y="-735.5" font-family="sans" font-size="10.00">kraken2</text>
</g>
<!-- 7&#45;&gt;33 -->
<g id="edge48" class="edge"><title>7&#45;&gt;33</title>
<path fill="none" stroke="grey" stroke-width="2" d="M810.338,-791.876C785.812,-780.871 754.101,-766.642 729.755,-755.717"/>
<polygon fill="grey" stroke="grey" stroke-width="2" points="731.039,-752.457 720.483,-751.556 728.173,-758.843 731.039,-752.457"/>
</g>
<!-- 8 -->
<g id="node9" class="node"><title>8</title>
<path fill="none" stroke="#56d882" stroke-width="2" d="M896.5,-324C896.5,-324 834.5,-324 834.5,-324 828.5,-324 822.5,-318 822.5,-312 822.5,-312 822.5,-300 822.5,-300 822.5,-294 828.5,-288 834.5,-288 834.5,-288 896.5,-288 896.5,-288 902.5,-288 908.5,-294 908.5,-300 908.5,-300 908.5,-312 908.5,-312 908.5,-318 902.5,-324 896.5,-324"/>
<text text-anchor="middle" x="865.5" y="-303.5" font-family="sans" font-size="10.00">get_fasta_final</text>
</g>
<!-- 14 -->
<g id="node15" class="node"><title>14</title>
<path fill="none" stroke="#56d892" stroke-width="2" d="M625.5,-36C625.5,-36 595.5,-36 595.5,-36 589.5,-36 583.5,-30 583.5,-24 583.5,-24 583.5,-12 583.5,-12 583.5,-6 589.5,-0 595.5,-0 595.5,-0 625.5,-0 625.5,-0 631.5,-0 637.5,-6 637.5,-12 637.5,-12 637.5,-24 637.5,-24 637.5,-30 631.5,-36 625.5,-36"/>
<text text-anchor="middle" x="610.5" y="-15.5" font-family="sans" font-size="10.00">all</text>
</g>
<!-- 8&#45;&gt;14 -->
<g id="edge21" class="edge"><title>8&#45;&gt;14</title>
<path fill="none" stroke="grey" stroke-width="2" d="M868.774,-287.691C875.926,-243.995 887.682,-128.68 825.5,-72 799.676,-48.4608 702.117,-31.6273 647.721,-23.8454"/>
<polygon fill="grey" stroke="grey" stroke-width="2" points="648.161,-20.3729 637.772,-22.4542 647.191,-27.3055 648.161,-20.3729"/>
</g>
<!-- 9 -->
<g id="node10" class="node"><title>9</title>
<path fill="none" stroke="#afd856" stroke-width="2" d="M192.5,-180C192.5,-180 88.5,-180 88.5,-180 82.5,-180 76.5,-174 76.5,-168 76.5,-168 76.5,-156 76.5,-156 76.5,-150 82.5,-144 88.5,-144 88.5,-144 192.5,-144 192.5,-144 198.5,-144 204.5,-150 204.5,-156 204.5,-156 204.5,-168 204.5,-168 204.5,-174 198.5,-180 192.5,-180"/>
<text text-anchor="middle" x="140.5" y="-159.5" font-family="sans" font-size="10.00">samtools_flagstat_MS2</text>
</g>
<!-- 9&#45;&gt;14 -->
<g id="edge19" class="edge"><title>9&#45;&gt;14</title>
<path fill="none" stroke="grey" stroke-width="2" d="M150.126,-143.941C162.858,-123.147 187.366,-88.7178 218.5,-72 279.485,-39.253 487.504,-25.2148 573.171,-20.7269"/>
<polygon fill="grey" stroke="grey" stroke-width="2" points="573.423,-24.2187 583.232,-20.2145 573.067,-17.2277 573.423,-24.2187"/>
</g>
<!-- 36 -->
<g id="node37" class="node"><title>36</title>
<path fill="none" stroke="#68d856" stroke-width="2" d="M633,-108C633,-108 588,-108 588,-108 582,-108 576,-102 576,-96 576,-96 576,-84 576,-84 576,-78 582,-72 588,-72 588,-72 633,-72 633,-72 639,-72 645,-78 645,-84 645,-84 645,-96 645,-96 645,-102 639,-108 633,-108"/>
<text text-anchor="middle" x="610.5" y="-87.5" font-family="sans" font-size="10.00">reportHtml</text>
</g>
<!-- 9&#45;&gt;36 -->
<g id="edge52" class="edge"><title>9&#45;&gt;36</title>
<path fill="none" stroke="grey" stroke-width="2" d="M204.866,-151.414C301.644,-137 482.191,-110.11 565.838,-97.6517"/>
<polygon fill="grey" stroke="grey" stroke-width="2" points="566.411,-101.105 575.786,-96.1701 565.38,-94.1815 566.411,-101.105"/>
</g>
<!-- 10 -->
<g id="node11" class="node"><title>10</title>
<path fill="none" stroke="#56d8b9" stroke-width="2" d="M750.5,-540C750.5,-540 676.5,-540 676.5,-540 670.5,-540 664.5,-534 664.5,-528 664.5,-528 664.5,-516 664.5,-516 664.5,-510 670.5,-504 676.5,-504 676.5,-504 750.5,-504 750.5,-504 756.5,-504 762.5,-510 762.5,-516 762.5,-516 762.5,-528 762.5,-528 762.5,-534 756.5,-540 750.5,-540"/>
<text text-anchor="middle" x="713.5" y="-519.5" font-family="sans" font-size="10.00">vir_fun_par_blast</text>
</g>
<!-- 13 -->
<g id="node14" class="node"><title>13</title>
<path fill="none" stroke="#d8cb56" stroke-width="2" d="M747,-396C747,-396 698,-396 698,-396 692,-396 686,-390 686,-384 686,-384 686,-372 686,-372 686,-366 692,-360 698,-360 698,-360 747,-360 747,-360 753,-360 759,-366 759,-372 759,-372 759,-384 759,-384 759,-390 753,-396 747,-396"/>
<text text-anchor="middle" x="722.5" y="-375.5" font-family="sans" font-size="10.00">extract_info</text>
</g>
<!-- 10&#45;&gt;13 -->
<g id="edge17" class="edge"><title>10&#45;&gt;13</title>
<path fill="none" stroke="grey" stroke-width="2" d="M714.586,-503.871C716.119,-479.67 718.937,-435.211 720.764,-406.393"/>
<polygon fill="grey" stroke="grey" stroke-width="2" points="724.271,-406.391 721.411,-396.189 717.285,-405.948 724.271,-406.391"/>
</g>
<!-- 11 -->
<g id="node12" class="node"><title>11</title>
<path fill="none" stroke="#d89c56" stroke-width="2" d="M1077.5,-1404C1077.5,-1404 1047.5,-1404 1047.5,-1404 1041.5,-1404 1035.5,-1398 1035.5,-1392 1035.5,-1392 1035.5,-1380 1035.5,-1380 1035.5,-1374 1041.5,-1368 1047.5,-1368 1047.5,-1368 1077.5,-1368 1077.5,-1368 1083.5,-1368 1089.5,-1374 1089.5,-1380 1089.5,-1380 1089.5,-1392 1089.5,-1392 1089.5,-1398 1083.5,-1404 1077.5,-1404"/>
<text text-anchor="middle" x="1062.5" y="-1383.5" font-family="sans" font-size="10.00">dedupe</text>
</g>
<!-- 25 -->
<g id="node26" class="node"><title>25</title>
<path fill="none" stroke="#8fd856" stroke-width="2" d="M1090,-1332C1090,-1332 1035,-1332 1035,-1332 1029,-1332 1023,-1326 1023,-1320 1023,-1320 1023,-1308 1023,-1308 1023,-1302 1029,-1296 1035,-1296 1035,-1296 1090,-1296 1090,-1296 1096,-1296 1102,-1302 1102,-1308 1102,-1308 1102,-1320 1102,-1320 1102,-1326 1096,-1332 1090,-1332"/>
<text text-anchor="middle" x="1062.5" y="-1311.5" font-family="sans" font-size="10.00">trimmomatic</text>
</g>
<!-- 11&#45;&gt;25 -->
<g id="edge39" class="edge"><title>11&#45;&gt;25</title>
<path fill="none" stroke="grey" stroke-width="2" d="M1062.5,-1367.7C1062.5,-1359.98 1062.5,-1350.71 1062.5,-1342.11"/>
<polygon fill="grey" stroke="grey" stroke-width="2" points="1066,-1342.1 1062.5,-1332.1 1059,-1342.1 1066,-1342.1"/>
</g>
<!-- 12 -->
<g id="node13" class="node"><title>12</title>
<path fill="none" stroke="#d8a456" stroke-width="2" d="M805,-108C805,-108 698,-108 698,-108 692,-108 686,-102 686,-96 686,-96 686,-84 686,-84 686,-78 692,-72 698,-72 698,-72 805,-72 805,-72 811,-72 817,-78 817,-84 817,-84 817,-96 817,-96 817,-102 811,-108 805,-108"/>
<text text-anchor="middle" x="751.5" y="-87.5" font-family="sans" font-size="10.00">create_tab_info_contigs</text>
</g>
<!-- 12&#45;&gt;14 -->
<g id="edge24" class="edge"><title>12&#45;&gt;14</title>
<path fill="none" stroke="grey" stroke-width="2" d="M717.008,-71.8761C695.702,-61.2987 668.398,-47.7439 646.77,-37.0065"/>
<polygon fill="grey" stroke="grey" stroke-width="2" points="648.093,-33.7555 637.579,-32.4436 644.98,-40.0253 648.093,-33.7555"/>
</g>
<!-- 13&#45;&gt;5 -->
<g id="edge8" class="edge"><title>13&#45;&gt;5</title>
<path fill="none" stroke="grey" stroke-width="2" d="M715.579,-359.697C712.425,-351.813 708.622,-342.304 705.119,-333.546"/>
<polygon fill="grey" stroke="grey" stroke-width="2" points="708.305,-332.089 701.342,-324.104 701.806,-334.689 708.305,-332.089"/>
</g>
<!-- 13&#45;&gt;8 -->
<g id="edge11" class="edge"><title>13&#45;&gt;8</title>
<path fill="none" stroke="grey" stroke-width="2" d="M757.482,-359.876C776.698,-350.469 800.726,-338.708 821.237,-328.667"/>
<polygon fill="grey" stroke="grey" stroke-width="2" points="822.941,-331.73 830.384,-324.19 819.863,-325.443 822.941,-331.73"/>
</g>
<!-- 13&#45;&gt;12 -->
<g id="edge16" class="edge"><title>13&#45;&gt;12</title>
<path fill="none" stroke="grey" stroke-width="2" d="M736.299,-359.899C761.609,-327.294 814.593,-252.963 833.5,-180 837.513,-164.512 841.15,-158.053 833.5,-144 826.587,-131.301 815.178,-121.181 803.035,-113.33"/>
<polygon fill="grey" stroke="grey" stroke-width="2" points="804.499,-110.128 794.118,-108.011 800.913,-116.14 804.499,-110.128"/>
</g>
<!-- 13&#45;&gt;24 -->
<g id="edge38" class="edge"><title>13&#45;&gt;24</title>
<path fill="none" stroke="grey" stroke-width="2" d="M727.902,-359.997C730.948,-349.69 734.527,-336.214 736.5,-324 744.01,-277.506 745.969,-222.619 746.428,-190.43"/>
<polygon fill="grey" stroke="grey" stroke-width="2" points="749.932,-190.078 746.535,-180.042 742.932,-190.006 749.932,-190.078"/>
</g>
<!-- 13&#45;&gt;37 -->
<g id="edge60" class="edge"><title>13&#45;&gt;37</title>
<path fill="none" stroke="grey" stroke-width="2" d="M692.937,-359.853C679.158,-350.66 663.432,-338.284 652.5,-324 650.334,-321.169 615.869,-234.59 598.027,-189.594"/>
<polygon fill="grey" stroke="grey" stroke-width="2" points="601.224,-188.159 594.286,-180.152 594.716,-190.738 601.224,-188.159"/>
</g>
<!-- 15 -->
<g id="node16" class="node"><title>15</title>
<path fill="none" stroke="#56d8a2" stroke-width="2" d="M65,-756C65,-756 12,-756 12,-756 6,-756 0,-750 0,-744 0,-744 0,-732 0,-732 0,-726 6,-720 12,-720 12,-720 65,-720 65,-720 71,-720 77,-726 77,-732 77,-732 77,-744 77,-744 77,-750 71,-756 65,-756"/>
<text text-anchor="middle" x="38.5" y="-735.5" font-family="sans" font-size="10.00">iget_listTaxId</text>
</g>
<!-- 15&#45;&gt;2 -->
<g id="edge5" class="edge"><title>15&#45;&gt;2</title>
<path fill="none" stroke="grey" stroke-width="2" d="M77.0033,-725.675C112.643,-715.193 166.417,-699.377 209.158,-686.806"/>
<polygon fill="grey" stroke="grey" stroke-width="2" points="210.326,-690.111 218.932,-683.932 208.351,-683.396 210.326,-690.111"/>
</g>
<!-- 15&#45;&gt;14 -->
<g id="edge25" class="edge"><title>15&#45;&gt;14</title>
<path fill="none" stroke="grey" stroke-width="2" d="M39.4878,-719.958C40.945,-693.308 43.5,-640.143 43.5,-595 43.5,-595 43.5,-595 43.5,-161 43.5,-51.5499 446.083,-25.7281 572.793,-20.3115"/>
<polygon fill="grey" stroke="grey" stroke-width="2" points="573.304,-23.7937 583.152,-19.8883 573.018,-16.7995 573.304,-23.7937"/>
</g>
<!-- 16&#45;&gt;0 -->
<g id="edge1" class="edge"><title>16&#45;&gt;0</title>
<path fill="none" stroke="grey" stroke-width="2" d="M974.849,-935.876C953.249,-926.307 926.149,-914.3 903.234,-904.148"/>
<polygon fill="grey" stroke="grey" stroke-width="2" points="904.586,-900.919 894.026,-900.068 901.751,-907.319 904.586,-900.919"/>
</g>
<!-- 22 -->
<g id="node23" class="node"><title>22</title>
<path fill="none" stroke="#b6d856" stroke-width="2" d="M1065,-180C1065,-180 970,-180 970,-180 964,-180 958,-174 958,-168 958,-168 958,-156 958,-156 958,-150 964,-144 970,-144 970,-144 1065,-144 1065,-144 1071,-144 1077,-150 1077,-156 1077,-156 1077,-168 1077,-168 1077,-174 1071,-180 1065,-180"/>
<text text-anchor="middle" x="1017.5" y="-159.5" font-family="sans" font-size="10.00">samtools_flagstat_T1</text>
</g>
<!-- 16&#45;&gt;22 -->
<g id="edge34" class="edge"><title>16&#45;&gt;22</title>
<path fill="none" stroke="grey" stroke-width="2" d="M1014.29,-935.955C1015.46,-909.302 1017.5,-856.132 1017.5,-811 1017.5,-811 1017.5,-811 1017.5,-305 1017.5,-264.996 1017.5,-218.653 1017.5,-190.08"/>
<polygon fill="grey" stroke="grey" stroke-width="2" points="1021,-190.049 1017.5,-180.049 1014,-190.049 1021,-190.049"/>
</g>
<!-- 27 -->
<g id="node28" class="node"><title>27</title>
<path fill="none" stroke="#78d856" stroke-width="2" d="M1185.5,-180C1185.5,-180 1107.5,-180 1107.5,-180 1101.5,-180 1095.5,-174 1095.5,-168 1095.5,-168 1095.5,-156 1095.5,-156 1095.5,-150 1101.5,-144 1107.5,-144 1107.5,-144 1185.5,-144 1185.5,-144 1191.5,-144 1197.5,-150 1197.5,-156 1197.5,-156 1197.5,-168 1197.5,-168 1197.5,-174 1191.5,-180 1185.5,-180"/>
<text text-anchor="middle" x="1146.5" y="-159.5" font-family="sans" font-size="10.00">samtools_flagstat</text>
</g>
<!-- 17&#45;&gt;27 -->
<g id="edge42" class="edge"><title>17&#45;&gt;27</title>
<path fill="none" stroke="grey" stroke-width="2" d="M1079.64,-1151.89C1102.88,-1126.8 1141.5,-1077.5 1141.5,-1027 1141.5,-1027 1141.5,-1027 1141.5,-305 1141.5,-264.971 1143.51,-218.635 1144.98,-190.07"/>
<polygon fill="grey" stroke="grey" stroke-width="2" points="1148.48,-190.214 1145.51,-180.042 1141.49,-189.843 1148.48,-190.214"/>
</g>
<!-- 38 -->
<g id="node39" class="node"><title>38</title>
<path fill="none" stroke="#d8b456" stroke-width="2" d="M1071,-1116C1071,-1116 956,-1116 956,-1116 950,-1116 944,-1110 944,-1104 944,-1104 944,-1092 944,-1092 944,-1086 950,-1080 956,-1080 956,-1080 1071,-1080 1071,-1080 1077,-1080 1083,-1086 1083,-1092 1083,-1092 1083,-1104 1083,-1104 1083,-1110 1077,-1116 1071,-1116"/>
<text text-anchor="middle" x="1013.5" y="-1095.5" font-family="sans" font-size="10.00">samtools_get_unmapped</text>
</g>
<!-- 17&#45;&gt;38 -->
<g id="edge61" class="edge"><title>17&#45;&gt;38</title>
<path fill="none" stroke="grey" stroke-width="2" d="M1050.39,-1151.7C1044.63,-1143.47 1037.64,-1133.48 1031.29,-1124.42"/>
<polygon fill="grey" stroke="grey" stroke-width="2" points="1034.08,-1122.29 1025.47,-1116.1 1028.34,-1126.3 1034.08,-1122.29"/>
</g>
<!-- 18 -->
<g id="node19" class="node"><title>18</title>
<path fill="none" stroke="#56d8d8" stroke-width="2" d="M908.5,-972C908.5,-972 802.5,-972 802.5,-972 796.5,-972 790.5,-966 790.5,-960 790.5,-960 790.5,-948 790.5,-948 790.5,-942 796.5,-936 802.5,-936 802.5,-936 908.5,-936 908.5,-936 914.5,-936 920.5,-942 920.5,-948 920.5,-948 920.5,-960 920.5,-960 920.5,-966 914.5,-972 908.5,-972"/>
<text text-anchor="middle" x="855.5" y="-951.5" font-family="sans" font-size="10.00">samtools_process_MS2</text>
</g>
<!-- 18&#45;&gt;0 -->
<g id="edge2" class="edge"><title>18&#45;&gt;0</title>
<path fill="none" stroke="grey" stroke-width="2" d="M855.5,-935.697C855.5,-927.983 855.5,-918.712 855.5,-910.112"/>
<polygon fill="grey" stroke="grey" stroke-width="2" points="859,-910.104 855.5,-900.104 852,-910.104 859,-910.104"/>
</g>
<!-- 18&#45;&gt;9 -->
<g id="edge13" class="edge"><title>18&#45;&gt;9</title>
<path fill="none" stroke="grey" stroke-width="2" d="M790.254,-947.517C607.784,-931.314 105.5,-880.408 105.5,-811 105.5,-811 105.5,-811 105.5,-305 105.5,-263.843 119.532,-217.876 129.827,-189.69"/>
<polygon fill="grey" stroke="grey" stroke-width="2" points="133.169,-190.744 133.417,-180.152 126.618,-188.278 133.169,-190.744"/>
</g>
<!-- 19 -->
<g id="node20" class="node"><title>19</title>
<path fill="none" stroke="#56d0d8" stroke-width="2" d="M478,-396C478,-396 403,-396 403,-396 397,-396 391,-390 391,-384 391,-384 391,-372 391,-372 391,-366 397,-360 403,-360 403,-360 478,-360 478,-360 484,-360 490,-366 490,-372 490,-372 490,-384 490,-384 490,-390 484,-396 478,-396"/>
<text text-anchor="middle" x="440.5" y="-375.5" font-family="sans" font-size="10.00">extract_info_bact</text>
</g>
<!-- 19&#45;&gt;6 -->
<g id="edge9" class="edge"><title>19&#45;&gt;6</title>
<path fill="none" stroke="grey" stroke-width="2" d="M411.634,-359.876C396.205,-350.724 377.019,-339.342 360.403,-329.485"/>
<polygon fill="grey" stroke="grey" stroke-width="2" points="361.863,-326.282 351.477,-324.19 358.292,-332.302 361.863,-326.282"/>
</g>
<!-- 21 -->
<g id="node22" class="node"><title>21</title>
<path fill="none" stroke="#56c1d8" stroke-width="2" d="M457.5,-180C457.5,-180 365.5,-180 365.5,-180 359.5,-180 353.5,-174 353.5,-168 353.5,-168 353.5,-156 353.5,-156 353.5,-150 359.5,-144 365.5,-144 365.5,-144 457.5,-144 457.5,-144 463.5,-144 469.5,-150 469.5,-156 469.5,-156 469.5,-168 469.5,-168 469.5,-174 463.5,-180 457.5,-180"/>
<text text-anchor="middle" x="411.5" y="-159.5" font-family="sans" font-size="10.00">coverage_Argos_info</text>
</g>
<!-- 19&#45;&gt;21 -->
<g id="edge33" class="edge"><title>19&#45;&gt;21</title>
<path fill="none" stroke="grey" stroke-width="2" d="M437.387,-359.845C435.557,-349.484 433.264,-336.004 431.5,-324 424.62,-277.181 418.157,-222.472 414.526,-190.393"/>
<polygon fill="grey" stroke="grey" stroke-width="2" points="418.001,-189.973 413.407,-180.426 411.045,-190.755 418.001,-189.973"/>
</g>
<!-- 26 -->
<g id="node27" class="node"><title>26</title>
<path fill="none" stroke="#56b1d8" stroke-width="2" d="M231,-324C231,-324 146,-324 146,-324 140,-324 134,-318 134,-312 134,-312 134,-300 134,-300 134,-294 140,-288 146,-288 146,-288 231,-288 231,-288 237,-288 243,-294 243,-300 243,-300 243,-312 243,-312 243,-318 237,-324 231,-324"/>
<text text-anchor="middle" x="188.5" y="-303.5" font-family="sans" font-size="10.00">get_fasta_final_bac</text>
</g>
<!-- 19&#45;&gt;26 -->
<g id="edge40" class="edge"><title>19&#45;&gt;26</title>
<path fill="none" stroke="grey" stroke-width="2" d="M390.713,-363.17C351.323,-352.229 296.017,-336.866 253.198,-324.972"/>
<polygon fill="grey" stroke="grey" stroke-width="2" points="254.005,-321.563 243.433,-322.259 252.131,-328.308 254.005,-321.563"/>
</g>
<!-- 30 -->
<g id="node31" class="node"><title>30</title>
<path fill="none" stroke="#88d856" stroke-width="2" d="M554,-324C554,-324 453,-324 453,-324 447,-324 441,-318 441,-312 441,-312 441,-300 441,-300 441,-294 447,-288 453,-288 453,-288 554,-288 554,-288 560,-288 566,-294 566,-300 566,-300 566,-312 566,-312 566,-318 560,-324 554,-324"/>
<text text-anchor="middle" x="503.5" y="-303.5" font-family="sans" font-size="10.00">count_info_argos_silva</text>
</g>
<!-- 19&#45;&gt;30 -->
<g id="edge45" class="edge"><title>19&#45;&gt;30</title>
<path fill="none" stroke="grey" stroke-width="2" d="M456.073,-359.697C463.702,-351.22 473.023,-340.864 481.376,-331.583"/>
<polygon fill="grey" stroke="grey" stroke-width="2" points="484.018,-333.879 488.106,-324.104 478.815,-329.196 484.018,-333.879"/>
</g>
<!-- 20 -->
<g id="node21" class="node"><title>20</title>
<path fill="none" stroke="#56d87b" stroke-width="2" d="M907.5,-1044C907.5,-1044 839.5,-1044 839.5,-1044 833.5,-1044 827.5,-1038 827.5,-1032 827.5,-1032 827.5,-1020 827.5,-1020 827.5,-1014 833.5,-1008 839.5,-1008 839.5,-1008 907.5,-1008 907.5,-1008 913.5,-1008 919.5,-1014 919.5,-1020 919.5,-1020 919.5,-1032 919.5,-1032 919.5,-1038 913.5,-1044 907.5,-1044"/>
<text text-anchor="middle" x="873.5" y="-1023.5" font-family="sans" font-size="10.00">bwa_mem_MS2</text>
</g>
<!-- 20&#45;&gt;18 -->
<g id="edge29" class="edge"><title>20&#45;&gt;18</title>
<path fill="none" stroke="grey" stroke-width="2" d="M869.051,-1007.7C867.045,-999.898 864.631,-990.509 862.399,-981.829"/>
<polygon fill="grey" stroke="grey" stroke-width="2" points="865.778,-980.918 859.898,-972.104 858.999,-982.661 865.778,-980.918"/>
</g>
<!-- 21&#45;&gt;36 -->
<g id="edge51" class="edge"><title>21&#45;&gt;36</title>
<path fill="none" stroke="grey" stroke-width="2" d="M459.926,-143.966C492.316,-132.572 534.612,-117.694 566.127,-106.609"/>
<polygon fill="grey" stroke="grey" stroke-width="2" points="567.682,-109.772 575.954,-103.152 565.359,-103.168 567.682,-109.772"/>
</g>
<!-- 22&#45;&gt;14 -->
<g id="edge18" class="edge"><title>22&#45;&gt;14</title>
<path fill="none" stroke="grey" stroke-width="2" d="M1001.46,-143.867C981.171,-123.329 944.198,-89.4963 905.5,-72 818.906,-32.849 705.725,-22.5849 647.964,-19.9173"/>
<polygon fill="grey" stroke="grey" stroke-width="2" points="647.977,-16.415 637.842,-19.5024 647.691,-23.4092 647.977,-16.415"/>
</g>
<!-- 22&#45;&gt;36 -->
<g id="edge53" class="edge"><title>22&#45;&gt;36</title>
<path fill="none" stroke="grey" stroke-width="2" d="M957.823,-146.795C952.988,-145.796 948.169,-144.849 943.5,-144 825.692,-122.573 794.016,-130.974 676.5,-108 669.634,-106.658 662.419,-105.029 655.383,-103.317"/>
<polygon fill="grey" stroke="grey" stroke-width="2" points="655.814,-99.8166 645.262,-100.774 654.108,-106.605 655.814,-99.8166"/>
</g>
<!-- 23&#45;&gt;10 -->
<g id="edge14" class="edge"><title>23&#45;&gt;10</title>
<path fill="none" stroke="grey" stroke-width="2" d="M654.028,-575.697C663.882,-566.965 675.986,-556.24 686.696,-546.75"/>
<polygon fill="grey" stroke="grey" stroke-width="2" points="689.033,-549.356 694.197,-540.104 684.391,-544.117 689.033,-549.356"/>
</g>
<!-- 28 -->
<g id="node29" class="node"><title>28</title>
<path fill="none" stroke="#56a9d8" stroke-width="2" d="M630.5,-540C630.5,-540 558.5,-540 558.5,-540 552.5,-540 546.5,-534 546.5,-528 546.5,-528 546.5,-516 546.5,-516 546.5,-510 552.5,-504 558.5,-504 558.5,-504 630.5,-504 630.5,-504 636.5,-504 642.5,-510 642.5,-516 642.5,-516 642.5,-528 642.5,-528 642.5,-534 636.5,-540 630.5,-540"/>
<text text-anchor="middle" x="594.5" y="-519.5" font-family="sans" font-size="10.00">iget_db_bacteria</text>
</g>
<!-- 23&#45;&gt;28 -->
<g id="edge43" class="edge"><title>23&#45;&gt;28</title>
<path fill="none" stroke="grey" stroke-width="2" d="M624.612,-575.697C620.011,-567.644 614.44,-557.894 609.347,-548.982"/>
<polygon fill="grey" stroke="grey" stroke-width="2" points="612.274,-547.05 604.274,-540.104 606.196,-550.523 612.274,-547.05"/>
</g>
<!-- 24&#45;&gt;36 -->
<g id="edge54" class="edge"><title>24&#45;&gt;36</title>
<path fill="none" stroke="grey" stroke-width="2" d="M713.231,-143.876C695.037,-134.512 672.309,-122.814 652.86,-112.803"/>
<polygon fill="grey" stroke="grey" stroke-width="2" points="654.39,-109.654 643.897,-108.19 651.187,-115.878 654.39,-109.654"/>
</g>
<!-- 25&#45;&gt;1 -->
<g id="edge3" class="edge"><title>25&#45;&gt;1</title>
<path fill="none" stroke="grey" stroke-width="2" d="M1062.5,-1295.7C1062.5,-1287.98 1062.5,-1278.71 1062.5,-1270.11"/>
<polygon fill="grey" stroke="grey" stroke-width="2" points="1066,-1270.1 1062.5,-1260.1 1059,-1270.1 1066,-1270.1"/>
</g>
<!-- 26&#45;&gt;14 -->
<g id="edge20" class="edge"><title>26&#45;&gt;14</title>
<path fill="none" stroke="grey" stroke-width="2" d="M198.374,-287.816C217.953,-255.198 264.83,-184.004 322.5,-144 404.464,-87.1445 516.425,-47.6964 573.605,-29.824"/>
<polygon fill="grey" stroke="grey" stroke-width="2" points="574.767,-33.1283 583.293,-26.839 572.706,-26.4386 574.767,-33.1283"/>
</g>
<!-- 27&#45;&gt;14 -->
<g id="edge22" class="edge"><title>27&#45;&gt;14</title>
<path fill="none" stroke="grey" stroke-width="2" d="M1115.44,-143.988C1077.1,-123.732 1009.37,-90.3451 947.5,-72 841.488,-40.564 710.864,-26.7911 647.911,-21.6379"/>
<polygon fill="grey" stroke="grey" stroke-width="2" points="647.928,-18.1284 637.683,-20.8284 647.375,-25.1066 647.928,-18.1284"/>
</g>
<!-- 27&#45;&gt;36 -->
<g id="edge55" class="edge"><title>27&#45;&gt;36</title>
<path fill="none" stroke="grey" stroke-width="2" d="M1095.4,-146.025C1092.07,-145.275 1088.74,-144.59 1085.5,-144 905.961,-111.368 856.352,-138.863 676.5,-108 669.605,-106.817 662.374,-105.273 655.331,-103.599"/>
<polygon fill="grey" stroke="grey" stroke-width="2" points="655.755,-100.098 645.206,-101.079 654.065,-106.891 655.755,-100.098"/>
</g>
<!-- 28&#45;&gt;14 -->
<g id="edge23" class="edge"><title>28&#45;&gt;14</title>
<path fill="none" stroke="grey" stroke-width="2" d="M594.5,-503.951C594.5,-477.292 594.5,-424.115 594.5,-379 594.5,-379 594.5,-379 594.5,-305 594.5,-264.458 597.996,-249.039 574.5,-216 556.917,-191.275 531.249,-206.513 516.5,-180 508.722,-166.018 511.718,-159.269 516.5,-144 529.094,-103.784 560.968,-66.3866 584.115,-43.1718"/>
<polygon fill="grey" stroke="grey" stroke-width="2" points="586.592,-45.6446 591.288,-36.1473 581.694,-40.6433 586.592,-45.6446"/>
</g>
<!-- 34 -->
<g id="node35" class="node"><title>34</title>
<path fill="none" stroke="#d8c356" stroke-width="2" d="M526.5,-468C526.5,-468 466.5,-468 466.5,-468 460.5,-468 454.5,-462 454.5,-456 454.5,-456 454.5,-444 454.5,-444 454.5,-438 460.5,-432 466.5,-432 466.5,-432 526.5,-432 526.5,-432 532.5,-432 538.5,-438 538.5,-444 538.5,-444 538.5,-456 538.5,-456 538.5,-462 532.5,-468 526.5,-468"/>
<text text-anchor="middle" x="496.5" y="-447.5" font-family="sans" font-size="10.00">bacteria_blast</text>
</g>
<!-- 28&#45;&gt;34 -->
<g id="edge49" class="edge"><title>28&#45;&gt;34</title>
<path fill="none" stroke="grey" stroke-width="2" d="M570.527,-503.876C557.95,-494.893 542.368,-483.763 528.748,-474.034"/>
<polygon fill="grey" stroke="grey" stroke-width="2" points="530.737,-471.154 520.566,-468.19 526.669,-476.85 530.737,-471.154"/>
</g>
<!-- 29&#45;&gt;36 -->
<g id="edge56" class="edge"><title>29&#45;&gt;36</title>
<path fill="none" stroke="grey" stroke-width="2" d="M321.656,-215.944C321.653,-195.805 324.935,-162.691 344.5,-144 375.647,-114.243 498.143,-99.9488 565.505,-94.2143"/>
<polygon fill="grey" stroke="grey" stroke-width="2" points="566.14,-97.6739 575.82,-93.3664 565.567,-90.6974 566.14,-97.6739"/>
</g>
<!-- 35 -->
<g id="node36" class="node"><title>35</title>
<path fill="none" stroke="#5673d8" stroke-width="2" d="M554,-252C554,-252 453,-252 453,-252 447,-252 441,-246 441,-240 441,-240 441,-228 441,-228 441,-222 447,-216 453,-216 453,-216 554,-216 554,-216 560,-216 566,-222 566,-228 566,-228 566,-240 566,-240 566,-246 560,-252 554,-252"/>
<text text-anchor="middle" x="503.5" y="-231.5" font-family="sans" font-size="10.00">getNames_argos_silva</text>
</g>
<!-- 30&#45;&gt;35 -->
<g id="edge50" class="edge"><title>30&#45;&gt;35</title>
<path fill="none" stroke="grey" stroke-width="2" d="M503.5,-287.697C503.5,-279.983 503.5,-270.712 503.5,-262.112"/>
<polygon fill="grey" stroke="grey" stroke-width="2" points="507,-262.104 503.5,-252.104 500,-262.104 507,-262.104"/>
</g>
<!-- 31&#45;&gt;36 -->
<g id="edge57" class="edge"><title>31&#45;&gt;36</title>
<path fill="none" stroke="grey" stroke-width="2" d="M868.03,-647.863C893.956,-623.11 936.5,-574.625 936.5,-523 936.5,-523 936.5,-523 936.5,-377 936.5,-263.777 924.715,-211.076 833.5,-144 775.826,-101.589 746.058,-124.93 676.5,-108 669.465,-106.288 662.023,-104.423 654.77,-102.576"/>
<polygon fill="grey" stroke="grey" stroke-width="2" points="655.608,-99.178 645.052,-100.085 653.87,-105.959 655.608,-99.178"/>
</g>
<!-- 32 -->
<g id="node33" class="node"><title>32</title>
<path fill="none" stroke="#61d856" stroke-width="2" d="M1090.5,-1476C1090.5,-1476 1034.5,-1476 1034.5,-1476 1028.5,-1476 1022.5,-1470 1022.5,-1464 1022.5,-1464 1022.5,-1452 1022.5,-1452 1022.5,-1446 1028.5,-1440 1034.5,-1440 1034.5,-1440 1090.5,-1440 1090.5,-1440 1096.5,-1440 1102.5,-1446 1102.5,-1452 1102.5,-1452 1102.5,-1464 1102.5,-1464 1102.5,-1470 1096.5,-1476 1090.5,-1476"/>
<text text-anchor="middle" x="1062.5" y="-1455.5" font-family="sans" font-size="10.00">iget_samples</text>
</g>
<!-- 32&#45;&gt;11 -->
<g id="edge15" class="edge"><title>32&#45;&gt;11</title>
<path fill="none" stroke="grey" stroke-width="2" d="M1062.5,-1439.7C1062.5,-1431.98 1062.5,-1422.71 1062.5,-1414.11"/>
<polygon fill="grey" stroke="grey" stroke-width="2" points="1066,-1414.1 1062.5,-1404.1 1059,-1414.1 1066,-1414.1"/>
</g>
<!-- 33&#45;&gt;2 -->
<g id="edge4" class="edge"><title>33&#45;&gt;2</title>
<path fill="none" stroke="grey" stroke-width="2" d="M664.726,-733.479C606.068,-725.876 465.345,-706.758 348.5,-684 347.042,-683.716 345.569,-683.423 344.086,-683.123"/>
<polygon fill="grey" stroke="grey" stroke-width="2" points="344.688,-679.673 334.182,-681.043 343.249,-686.523 344.688,-679.673"/>
</g>
<!-- 33&#45;&gt;8 -->
<g id="edge12" class="edge"><title>33&#45;&gt;8</title>
<path fill="none" stroke="grey" stroke-width="2" d="M714.965,-719.975C744.174,-695.712 791.5,-648.193 791.5,-595 791.5,-595 791.5,-595 791.5,-449 791.5,-403.904 821.214,-358.942 842.984,-332.052"/>
<polygon fill="grey" stroke="grey" stroke-width="2" points="845.726,-334.228 849.443,-324.306 840.35,-329.744 845.726,-334.228"/>
</g>
<!-- 33&#45;&gt;23 -->
<g id="edge36" class="edge"><title>33&#45;&gt;23</title>
<path fill="none" stroke="grey" stroke-width="2" d="M685.504,-719.871C675.532,-695.457 657.139,-650.426 645.379,-621.635"/>
<polygon fill="grey" stroke="grey" stroke-width="2" points="648.542,-620.123 641.521,-612.189 642.062,-622.77 648.542,-620.123"/>
</g>
<!-- 33&#45;&gt;26 -->
<g id="edge41" class="edge"><title>33&#45;&gt;26</title>
<path fill="none" stroke="grey" stroke-width="2" d="M664.932,-737.58C585.62,-737.679 362.5,-726.29 362.5,-595 362.5,-595 362.5,-595 362.5,-449 362.5,-388.926 299.476,-349.728 249.288,-328.038"/>
<polygon fill="grey" stroke="grey" stroke-width="2" points="250.341,-324.684 239.765,-324.061 247.644,-331.144 250.341,-324.684"/>
</g>
<!-- 33&#45;&gt;31 -->
<g id="edge47" class="edge"><title>33&#45;&gt;31</title>
<path fill="none" stroke="grey" stroke-width="2" d="M720.031,-724.647C745.538,-713.201 783.665,-696.092 811.762,-683.485"/>
<polygon fill="grey" stroke="grey" stroke-width="2" points="813.554,-686.517 821.245,-679.23 810.688,-680.131 813.554,-686.517"/>
</g>
<!-- 34&#45;&gt;19 -->
<g id="edge30" class="edge"><title>34&#45;&gt;19</title>
<path fill="none" stroke="grey" stroke-width="2" d="M482.657,-431.697C476.011,-423.389 467.922,-413.277 460.613,-404.141"/>
<polygon fill="grey" stroke="grey" stroke-width="2" points="463.164,-401.727 454.183,-396.104 457.697,-406.099 463.164,-401.727"/>
</g>
<!-- 35&#45;&gt;21 -->
<g id="edge32" class="edge"><title>35&#45;&gt;21</title>
<path fill="none" stroke="grey" stroke-width="2" d="M480.758,-215.697C469.06,-206.796 454.639,-195.823 441.99,-186.199"/>
<polygon fill="grey" stroke="grey" stroke-width="2" points="444.058,-183.374 433.98,-180.104 439.819,-188.945 444.058,-183.374"/>
</g>
<!-- 36&#45;&gt;14 -->
<g id="edge26" class="edge"><title>36&#45;&gt;14</title>
<path fill="none" stroke="grey" stroke-width="2" d="M610.5,-71.6966C610.5,-63.9827 610.5,-54.7125 610.5,-46.1124"/>
<polygon fill="grey" stroke="grey" stroke-width="2" points="614,-46.1043 610.5,-36.1043 607,-46.1044 614,-46.1043"/>
</g>
<!-- 37&#45;&gt;36 -->
<g id="edge58" class="edge"><title>37&#45;&gt;36</title>
<path fill="none" stroke="grey" stroke-width="2" d="M593.185,-143.697C595.748,-135.898 598.833,-126.509 601.685,-117.829"/>
<polygon fill="grey" stroke="grey" stroke-width="2" points="605.084,-118.697 604.88,-108.104 598.433,-116.512 605.084,-118.697"/>
</g>
<!-- 38&#45;&gt;4 -->
<g id="edge7" class="edge"><title>38&#45;&gt;4</title>
<path fill="none" stroke="grey" stroke-width="2" d="M1013.5,-1079.7C1013.5,-1071.98 1013.5,-1062.71 1013.5,-1054.11"/>
<polygon fill="grey" stroke="grey" stroke-width="2" points="1017,-1054.1 1013.5,-1044.1 1010,-1054.1 1017,-1054.1"/>
</g>
<!-- 38&#45;&gt;20 -->
<g id="edge31" class="edge"><title>38&#45;&gt;20</title>
<path fill="none" stroke="grey" stroke-width="2" d="M979.252,-1079.88C960.439,-1070.47 936.915,-1058.71 916.834,-1048.67"/>
<polygon fill="grey" stroke="grey" stroke-width="2" points="918.389,-1045.53 907.88,-1044.19 915.259,-1051.79 918.389,-1045.53"/>
</g>
</g>
</svg>
